<svg xmlns="http://www.w3.org/2000/svg" data-name="Layer 1" viewBox="0 0 700 550" id="businessman-attending-video-conference"><defs><clipPath id="a"><rect width="16.567" height="15.687" x="421.61" y="276.973" fill="none" transform="rotate(-180 429.893 284.817)"></rect></clipPath><clipPath id="b"><rect width="16.567" height="15.687" x="382.059" y="295.271" fill="none" transform="rotate(-180 390.342 303.114)"></rect></clipPath><clipPath id="c"><rect width="16.567" height="15.687" x="421.61" y="295.271" fill="none" transform="rotate(-180 429.893 303.114)"></rect></clipPath></defs><path fill="#f9e0c0" d="M432.06077,466.86606c16.25-5.08,30.83-10.27,48.37-20.12,18.09-10.16,98.45-58.51,108.9-142.19a159.61541,159.61541,0,0,0-6.66-68.16c-3.23-9.47-9.93-28.49-26.84-47.3-20.7-23.04-44.32-31.97-58.17-37.02-29.14-10.63-53.58-10.07-65.22-9.69-12.56.41-34.73,1.33-59.93,12.34-16.44,7.18-26.66,15.37-41.72,27.61-23.86,19.41-27,27.49-68.74,67.57-11.46,11-20.88,19.67-35.26,28.21-9.97,5.92-18.03,9.23-32.9,15.27-36.55,14.85-46.95657,17.85676-58.91657,26.21676-23.26,16.27-21.75343,34.01324-22.75343,37.83324a75.12694,75.12694,0,0,0-1.77,29.97c3.05,20.07,13.86,33.19,20.57,41.13a113.09822,113.09822,0,0,0,32.9,26.44,210.24676,210.24676,0,0,0,26.96,11.89Z"></path><path fill="#f4c5a2" d="M483.65234,452.68l-.49023-.87109c23.90039-13.42676,102.69727-63.7627,113.17773-147.73633a166.34424,166.34424,0,0,0-6.91406-70.77246c-2.97656-8.73145-9.94922-29.17969-27.84765-49.09473-21.91895-24.39063-46.94532-33.51856-60.38965-38.42285a174.03477,174.03477,0,0,0-67.74707-10.06738c-11.53809.374-35.54688,1.15332-62.24317,12.81054l-.40039-.916c26.87207-11.73438,51.01074-12.51758,62.61035-12.89453A175.03431,175.03431,0,0,1,501.53027,144.843c13.52735,4.9336,38.70606,14.11719,60.792,38.69434,18.03515,20.06641,25.05371,40.65039,28.05078,49.44043a167.41488,167.41488,0,0,1,6.959,71.21777C586.794,388.635,507.65625,439.19558,483.65234,452.68Z"></path><rect width="121.643" height="251.018" x="116.03" y="164.266" fill="#935b50"></rect><path fill="#ffba55" d="M156.22664,282.74461H134.44476V261.587a10.89093,10.89093,0,0,1,10.89093-10.89094h0A10.89093,10.89093,0,0,1,156.22664,261.587Z"></path><circle cx="145.717" cy="262.107" r="8.151" fill="#fff"></circle><path fill="#080200" d="M148.041,255.69076c-.55643,2.2177-1.31,4.36434-2.05445,6.51408l-.11952-.3418c2.0089,1.25989,4.02509,2.50885,5.91993,3.95549-2.15138-1.0274-4.18178-2.2525-6.2191-3.46665l-.20333-.12135.08344-.22082C146.25257,259.88183,147.04841,257.75068,148.041,255.69076Z"></path><path fill="#ffba55" d="M154.19135,410.80842V411.23a4.05514,4.05514,0,0,1-4.05366,4.05366h-12.1772a4.05514,4.05514,0,0,1-4.05366-4.05366V394.82078a4.05514,4.05514,0,0,1,4.05366-4.05366h12.1772a4.05514,4.05514,0,0,1,4.05366,4.05366v15.98764Z"></path><path fill="#fff" d="M160.90407,394.95037h-6.71268v2.4322H159.688v10.99357h-5.49659v2.4322h6.71268a1.21439,1.21439,0,0,0,1.2161-1.2161V396.16647A1.21451,1.21451,0,0,0,160.90407,394.95037Z"></path><rect width="5.038" height="5.038" x="144.049" y="399.16" fill="#fff" rx=".811"></rect><rect width="1.141" height="8.394" x="145.998" y="390.767" fill="#e5caf3"></rect><path fill="#e19974" d="M110,157.93727V466.86648h6.03V459.2543H237.6733v7.61218h6.03V157.93727Zm6.03,6.32842h59.10537v61.94108H116.03Zm0,66.89628h59.10537v51.58264H116.03Zm0,56.956h59.10537v59.10518H116.03Zm0,64.47835h59.10537v62.68735H116.03ZM237.6733,454.14988H116.03V421.7316H237.6733Zm0-38.86622H178.89662V352.59631H237.6733Zm0-68.06052H178.89662V288.118H237.6733Zm0-64.47853H178.89662V231.162H237.6733Zm0-56.53784H178.89662V164.26569H237.6733Z"></path><rect width="121.643" height="33.911" x="116.03" y="420.239" fill="#935b50"></rect><rect width="20.687" height="4.119" x="130.956" y="435.881" fill="#e19974"></rect><rect width="20.687" height="4.119" x="202.061" y="435.881" fill="#e19974"></rect><path fill="#fff" d="M192.91638,220.08024H229.616a0,0,0,0,1,0,0v5.473a0,0,0,0,1,0,0H192.91638a2.42738,2.42738,0,0,1-2.42738-2.42738v-.61824A2.42738,2.42738,0,0,1,192.91638,220.08024Z"></path><path fill="#f65b2b" d="M230.76141,225.69334a.51206.51206,0,0,1-.52684.49587H192.22185c-1.45137,0-2.63193-1.50039-2.63193-3.345,0-1.84411,1.18056-3.3445,2.63193-3.3445h38.01272a.51206.51206,0,0,1,.52684.49587v.39032a.51206.51206,0,0,1-.52684.49588H192.22185a2.01927,2.01927,0,0,0,0,3.92531h38.01272a.51206.51206,0,0,1,.52684.49588Z"></path><path fill="#fff" d="M187.20218,213.39079h36.69965a0,0,0,0,1,0,0v5.473a0,0,0,0,1,0,0H187.20218a2.42738,2.42738,0,0,1-2.42738-2.42738v-.61824a2.42738,2.42738,0,0,1,2.42738-2.42738Z"></path><path fill="#ffba55" d="M225.04721,219.00388a.51207.51207,0,0,1-.52684.49588H186.50765c-1.45137,0-2.63193-1.5004-2.63193-3.345,0-1.84411,1.18056-3.3445,2.63193-3.3445h38.01272a.51206.51206,0,0,1,.52684.49588v.39031a.51206.51206,0,0,1-.52684.49588H186.50765a2.01928,2.01928,0,0,0,0,3.92532h38.01272a.51206.51206,0,0,1,.52684.49587Z"></path><path fill="#fff" d="M198.89892,206.70133h36.69965a0,0,0,0,1,0,0v5.473a0,0,0,0,1,0,0H198.89892a2.42738,2.42738,0,0,1-2.42738-2.42738v-.61824A2.42738,2.42738,0,0,1,198.89892,206.70133Z"></path><path fill="#f65b2b" d="M236.744,212.31442a.51207.51207,0,0,1-.52685.49588H198.20439c-1.45137,0-2.63194-1.50039-2.63194-3.345,0-1.84412,1.18057-3.34451,2.63194-3.34451H236.2171a.51207.51207,0,0,1,.52685.49588v.39032a.51207.51207,0,0,1-.52685.49587H198.20439a2.01928,2.01928,0,0,0,0,3.92532H236.2171a.51207.51207,0,0,1,.52685.49587Z"></path><path fill="#fff" d="M189.66662,341.11417h36.69965a0,0,0,0,1,0,0v5.473a0,0,0,0,1,0,0H189.66662a2.42738,2.42738,0,0,1-2.42738-2.42738v-.61824a2.42738,2.42738,0,0,1,2.42738-2.42738Z" transform="rotate(180 206.803 343.85)"></path><path fill="#f65b2b" d="M186.09386,346.72727a.51206.51206,0,0,0,.52684.49587h38.01271c1.45137,0,2.63194-1.50039,2.63194-3.34495,0-1.84411-1.18057-3.3445-2.63194-3.3445H186.6207a.51206.51206,0,0,0-.52684.49587v.39032a.51207.51207,0,0,0,.52684.49588h38.01271a2.01927,2.01927,0,0,1,0,3.92531H186.6207a.51206.51206,0,0,0-.52684.49588Z"></path><path fill="#fff" d="M195.38082,334.42472h36.69965a0,0,0,0,1,0,0v5.473a0,0,0,0,1,0,0H195.38082a2.42738,2.42738,0,0,1-2.42738-2.42738v-.61824A2.42738,2.42738,0,0,1,195.38082,334.42472Z" transform="rotate(180 212.517 337.161)"></path><path fill="#ffba55" d="M191.80806,340.03781a.51207.51207,0,0,0,.52684.49588h38.01271c1.45137,0,2.63194-1.5004,2.63194-3.345,0-1.84411-1.18057-3.3445-2.63194-3.3445H192.3349a.51206.51206,0,0,0-.52684.49587v.39032a.51206.51206,0,0,0,.52684.49588h38.01271a2.01927,2.01927,0,0,1,0,3.92531H192.3349a.51207.51207,0,0,0-.52684.49588Z"></path><path fill="#fff" d="M183.68408,327.73526h36.69965a0,0,0,0,1,0,0v5.473a0,0,0,0,1,0,0H183.68408a2.42738,2.42738,0,0,1-2.42738-2.42738v-.61824A2.42738,2.42738,0,0,1,183.68408,327.73526Z" transform="rotate(180 200.82 330.472)"></path><path fill="#f65b2b" d="M180.11132,333.34835a.51207.51207,0,0,0,.52684.49588h38.01272c1.45137,0,2.63194-1.50039,2.63194-3.345,0-1.84411-1.18057-3.3445-2.63194-3.3445H180.63816a.51207.51207,0,0,0-.52684.49588v.39032a.51206.51206,0,0,0,.52684.49587h38.01272a2.01928,2.01928,0,0,1,0,3.92532H180.63816a.51206.51206,0,0,0-.52684.49587Z"></path><path fill="#7ca1b1" d="M147.89443,201.349h41.93622a0,0,0,0,1,0,0v6.59392a0,0,0,0,1,0,0H147.89443a.68538.68538,0,0,1-.68538-.68538v-5.22317a.68538.68538,0,0,1,.68538-.68538Z" transform="scale(-1) rotate(-82.24 -234.425 193.042)"></path><rect width=".797" height="6.594" x="170.56" y="183.452" fill="#fff" transform="rotate(-82.238 170.958 186.75)"></rect><rect width=".797" height="6.594" x="170.13" y="186.609" fill="#fff" transform="rotate(-82.238 170.528 189.906)"></rect><rect width=".797" height="6.594" x="166.259" y="215.016" fill="#fff" transform="rotate(-82.238 166.657 218.312)"></rect><rect width=".797" height="6.593" x="165.829" y="218.172" fill="#fff" transform="rotate(-82.237 166.227 221.469)"></rect><path fill="#f65b2b" d="M153.50038,184.27055l0,41.93622h-6.59392l0-41.93622a.68539.68539,0,0,1,.68538-.68538H152.815A.68538.68538,0,0,1,153.50038,184.27055Z"></path><rect width="6.594" height=".796" x="146.907" y="222.56" fill="#fff"></rect><rect width="6.594" height=".796" x="146.907" y="219.374" fill="#fff"></rect><rect width="6.594" height=".796" x="146.907" y="190.705" fill="#fff"></rect><rect width="6.594" height=".796" x="146.907" y="187.519" fill="#fff"></rect><path fill="#ffba55" d="M153.4924,226.20677V186.18183a.68538.68538,0,0,1,.68538-.68538h7.5167a.68539.68539,0,0,1,.68538.68538v40.02494Z"></path><rect width="8.887" height=".796" x="153.492" y="221.198" fill="#fff"></rect><rect width="19.017" height="5.734" x="148.428" y="194.432" fill="#fff" transform="rotate(90 157.936 197.299)"></rect><path fill="#ffba55" d="M131.43718,184.27055l0,41.93622h6.59392l0-41.93622a.68538.68538,0,0,0-.68538-.68538h-5.22316A.68537.68537,0,0,0,131.43718,184.27055Z"></path><rect width="6.595" height=".796" x="131.437" y="222.56" fill="#fff"></rect><rect width="6.595" height=".796" x="131.437" y="219.374" fill="#fff"></rect><rect width="6.595" height=".796" x="131.437" y="190.705" fill="#fff"></rect><rect width="6.595" height=".796" x="131.437" y="187.519" fill="#fff"></rect><path fill="#f65b2b" d="M131.44516,226.20677V186.18183a.68539.68539,0,0,0-.68538-.68538h-7.51671a.68539.68539,0,0,0-.68538.68538v40.02494Z"></path><rect width="8.887" height=".796" x="122.558" y="221.198" fill="#fff"></rect><rect width="19.017" height="5.734" x="117.493" y="194.432" fill="#fff" transform="rotate(90 127.001 197.299)"></rect><path fill="#7ca1b1" d="M122.799,201.40788h40.02494a0,0,0,0,1,0,0v8.88746a0,0,0,0,1,0,0H122.799a.68538.68538,0,0,1-.68538-.68538v-7.5167A.68538.68538,0,0,1,122.799,201.40788Z" transform="rotate(90 142.469 205.852)"></path><rect width="8.888" height=".796" x="138.025" y="221.198" fill="#fff"></rect><rect width="19.017" height="5.734" x="132.96" y="194.432" fill="#fff" transform="rotate(90 142.469 197.299)"></rect><path fill="#7ca1b1" d="M168.71408,309.74921h29.31317a0,0,0,0,1,0,0v4.60911a0,0,0,0,1,0,0H168.71408a.47908.47908,0,0,1-.47908-.47908v-3.651A.47908.47908,0,0,1,168.71408,309.74921Z" transform="rotate(82.24 183.131 312.054)"></path><polygon fill="#fff" points="179.181 300.132 179.105 299.581 183.672 298.958 183.748 299.509 179.181 300.132"></polygon><polygon fill="#fff" points="179.482 302.337 179.406 301.786 183.973 301.164 184.048 301.715 179.482 302.337"></polygon><polygon fill="#fff" points="182.187 322.193 182.111 321.643 186.679 321.02 186.754 321.571 182.187 322.193"></polygon><polygon fill="#fff" points="182.488 324.4 182.412 323.849 186.979 323.227 187.055 323.778 182.488 324.4"></polygon><path fill="#f65b2b" d="M193.62966,297.81148l0,29.31317h4.60912l0-29.31317a.47908.47908,0,0,0-.47907-.47908h-3.651A.47908.47908,0,0,0,193.62966,297.81148Z"></path><rect width="4.609" height=".556" x="193.629" y="324.575" fill="#fff"></rect><rect width="4.609" height=".556" x="193.629" y="322.348" fill="#fff"></rect><rect width="4.609" height=".556" x="193.629" y="302.309" fill="#fff"></rect><rect width="4.609" height=".556" x="193.629" y="300.082" fill="#fff"></rect><path fill="#ffba55" d="M193.63524,327.12465v-27.9772a.47908.47908,0,0,0-.47908-.47907H187.902a.47908.47908,0,0,0-.47908.47907v27.9772Z"></path><rect width="6.212" height=".556" x="187.423" y="323.624" fill="#fff"></rect><rect width="13.293" height="4.008" x="183.883" y="304.914" fill="#fff" transform="rotate(90 190.53 306.918)"></rect><path fill="#ffba55" d="M209.0517,297.81148l0,29.31317h-4.60911l0-29.31317a.47908.47908,0,0,1,.47908-.47908h3.651A.47908.47908,0,0,1,209.0517,297.81148Z"></path><rect width="4.61" height=".556" x="204.442" y="324.575" fill="#fff"></rect><rect width="4.61" height=".556" x="204.442" y="322.348" fill="#fff"></rect><rect width="4.61" height=".556" x="204.442" y="302.309" fill="#fff"></rect><rect width="4.61" height=".556" x="204.442" y="300.082" fill="#fff"></rect><path fill="#f65b2b" d="M209.04613,327.12465v-27.9772a.47907.47907,0,0,1,.47907-.47907h5.25414a.47907.47907,0,0,1,.47907.47907v27.9772Z"></path><rect width="6.212" height=".556" x="209.046" y="323.624" fill="#fff"></rect><rect width="13.293" height="4.008" x="205.506" y="304.914" fill="#fff" transform="rotate(90 212.152 306.918)"></rect><path fill="#7ca1b1" d="M187.59162,309.79037h27.9772a0,0,0,0,1,0,0v6.21228a0,0,0,0,1,0,0h-27.9772a.47908.47908,0,0,1-.47908-.47908v-5.25413A.47908.47908,0,0,1,187.59162,309.79037Z" transform="rotate(90 201.34 312.897)"></path><rect width="6.213" height=".557" x="198.234" y="323.623" fill="#fff"></rect><rect width="13.293" height="4.008" x="194.694" y="304.914" fill="#fff" transform="rotate(90 201.34 306.918)"></rect><path fill="#f65b2b" d="M152.58843,305.28692l0,41.93622h-6.59392l0-41.93622a.68538.68538,0,0,1,.68538-.68538h5.22317A.68538.68538,0,0,1,152.58843,305.28692Z"></path><rect width="6.594" height=".796" x="145.995" y="343.576" fill="#fff"></rect><rect width="6.594" height=".796" x="145.995" y="340.39" fill="#fff"></rect><rect width="6.594" height=".796" x="145.995" y="311.721" fill="#fff"></rect><rect width="6.594" height=".796" x="145.995" y="308.536" fill="#fff"></rect><path fill="#ffba55" d="M152.58046,347.22314V307.19821a.68537.68537,0,0,1,.68538-.68538h7.5167a.68538.68538,0,0,1,.68538.68538v40.02493Z"></path><rect width="8.887" height=".796" x="152.58" y="342.214" fill="#fff"></rect><rect width="19.017" height="5.734" x="147.516" y="315.448" fill="#fff" transform="rotate(90 157.024 318.315)"></rect><path fill="#ffba55" d="M130.52524,305.28692l0,41.93622h6.59392l0-41.93622a.68537.68537,0,0,0-.68538-.68538h-5.22316A.68538.68538,0,0,0,130.52524,305.28692Z"></path><rect width="6.595" height=".796" x="130.525" y="343.576" fill="#fff"></rect><rect width="6.595" height=".796" x="130.525" y="340.39" fill="#fff"></rect><rect width="6.595" height=".796" x="130.525" y="311.721" fill="#fff"></rect><rect width="6.595" height=".796" x="130.525" y="308.536" fill="#fff"></rect><path fill="#f65b2b" d="M130.53322,347.22314V307.19821a.68538.68538,0,0,0-.68538-.68538h-7.51671a.68538.68538,0,0,0-.68538.68538v40.02493Z"></path><rect width="8.887" height=".796" x="121.646" y="342.214" fill="#fff"></rect><rect width="19.017" height="5.734" x="116.581" y="315.448" fill="#fff" transform="rotate(90 126.09 318.315)"></rect><path fill="#7ca1b1" d="M121.88706,322.42425H161.912a0,0,0,0,1,0,0v8.88746a0,0,0,0,1,0,0H121.88706a.68538.68538,0,0,1-.68538-.68538v-7.5167A.68538.68538,0,0,1,121.88706,322.42425Z" transform="rotate(90 141.557 326.868)"></path><line x1="137.113" x2="146.001" y1="342.612" y2="342.612" fill="none" stroke="#fff" stroke-miterlimit="10" stroke-width=".796"></line><rect width="19.017" height="5.734" x="132.048" y="315.448" fill="#fff" transform="rotate(90 141.557 318.315)"></rect><path fill="#7ca1b1" d="M146.24165,322.42425h40.02494a0,0,0,0,1,0,0v8.88746a0,0,0,0,1,0,0H146.24165a.68538.68538,0,0,1-.68538-.68538v-7.5167A.68538.68538,0,0,1,146.24165,322.42425Z" transform="rotate(90 165.911 326.868)"></path><line x1="161.468" x2="170.355" y1="342.612" y2="342.612" fill="none" stroke="#fff" stroke-miterlimit="10" stroke-width=".796"></line><rect width="19.017" height="5.734" x="156.403" y="315.448" fill="#fff" transform="rotate(90 165.911 318.315)"></rect><path fill="#f65b2b" d="M214.69815,373.34744l0,41.93622H208.1042l0-41.93621a.68537.68537,0,0,1,.68538-.68538h5.22316A.68538.68538,0,0,1,214.69815,373.34744Z"></path><rect width="6.594" height=".796" x="208.105" y="411.636" fill="#fff"></rect><rect width="6.594" height=".796" x="208.105" y="408.451" fill="#fff"></rect><rect width="6.594" height=".796" x="208.105" y="379.782" fill="#fff"></rect><rect width="6.594" height=".796" x="208.105" y="376.596" fill="#fff"></rect><path fill="#ffba55" d="M214.69017,415.28366V375.25872a.68539.68539,0,0,1,.68538-.68538h7.51671a.68539.68539,0,0,1,.68538.68538v40.02494Z"></path><rect width="8.887" height=".796" x="214.69" y="410.275" fill="#fff"></rect><rect width="19.017" height="5.734" x="209.625" y="383.509" fill="#fff" transform="rotate(90 219.134 386.376)"></rect><path fill="#ffba55" d="M192.635,373.34744l0,41.93622h6.59392l0-41.93621a.68538.68538,0,0,0-.68538-.68538h-5.22317A.68539.68539,0,0,0,192.635,373.34744Z"></path><rect width="6.595" height=".796" x="192.635" y="411.636" fill="#fff"></rect><rect width="6.595" height=".796" x="192.635" y="408.451" fill="#fff"></rect><rect width="6.595" height=".796" x="192.635" y="379.782" fill="#fff"></rect><rect width="6.595" height=".796" x="192.635" y="376.596" fill="#fff"></rect><path fill="#7ca1b1" d="M183.99678,390.48477h40.02494a0,0,0,0,1,0,0v8.88746a0,0,0,0,1,0,0H183.99678a.68538.68538,0,0,1-.68538-.68538v-7.5167a.68538.68538,0,0,1,.68538-.68538Z" transform="rotate(90 203.667 394.929)"></path><line x1="199.223" x2="208.11" y1="410.673" y2="410.673" fill="none" stroke="#fff" stroke-miterlimit="10" stroke-width=".796"></line><rect width="19.017" height="5.734" x="194.158" y="383.509" fill="#fff" transform="rotate(90 203.667 386.376)"></rect><path fill="#ffba55" d="M221.40221 183.52079a1.51979 1.51979 0 00-1.12416-.54641c-.56991.07689-.54258.829-1.54466 1.77988-.817.77525-2.39553 1.75565-3.66034 1.34334-1.05455-.34381-.9077-1.33478-2.14955-2.21643a5.18826 5.18826 0 00-2.38788-.872c1.10557 4.4456 3.15128 7.44055 5.49943 7.44055C218.29174 190.44973 220.27 187.68289 221.40221 183.52079zM215.37514 196.47462c-1.00464.04737-1.54212 1.11941-3.49272 4.36579-.95835 1.59459-1.67038 2.737-2.19948 3.58418-.00874.31593-.0204.62967-.0204.9507h12.745c0-.317-.012-.62675-.02-.93868-.72624-.92082-1.82416-2.30041-3.45263-4.46946C217.01673 197.412 216.36446 196.428 215.37514 196.47462z"></path><path fill="#fff" d="M216.03488,191.19547c-3.99157,0-7.11879-6.91036-7.11879-15.73306v-.74627h14.23758v.74627C223.15367,184.28511,220.02645,191.19547,216.03488,191.19547Zm-5.61895-14.98678c.164,8.10411,2.9822,13.49422,5.61895,13.49422s5.455-5.39011,5.619-13.49422Z"></path><path fill="#fff" d="M223.15367,206.121H208.91609v-.74628c0-8.82269,3.12722-15.73305,7.11879-15.73305s7.11879,6.91036,7.11879,15.73305Zm-12.73774-1.49256h11.2379c-.164-8.10411-2.9822-13.49422-5.619-13.49422S210.57991,196.52436,210.41593,204.62847Z"></path><path fill="#7ca1b1" d="M227.50543,204.62829H225.2666V176.2085h2.23883a.74628.74628,0,1,0,0-1.49255H204.56467a.74628.74628,0,1,0,0,1.49255h2.23884v28.41979h-2.23884a.74628.74628,0,1,0,0,1.49255h22.94076a.74628.74628,0,1,0,0-1.49255ZM208.29606,176.2085h15.478v28.41979h-15.478Z"></path><path fill="#fcfcfc" d="M204.18006,271.864c-.05283-1.18172-.02-2.34432.01567-3.506l.755-3.34021,1.49911-6.683,1.49875-6.683.74956-3.3413c.49485-1.05893.93248-2.13061,1.47762-3.17824.04518,1.18008-.01677,2.33594-.0215,3.50473l-.7492,3.34149-1.49911,6.683-1.49875,6.683-.74373,3.34258C205.19964,269.75289,204.73285,270.818,204.18006,271.864Z"></path><path fill="#f65b2b" d="M207.54269,275.05482q-1.28613-6.73482-2.44836-13.48748c-.40156-2.24868-.88839-4.48551-1.11322-6.7595a52.10149,52.10149,0,0,1-.30063-6.8752l.14758-.02095a52.03581,52.03581,0,0,1,1.63066,6.68589c.41869,2.2463.57574,4.53.8177,6.80159q.76851,6.80832,1.41385,13.63469Z"></path><path fill="#ffba55" d="M214.08537,248.99612c-.13519,1.17517-.35127,2.31773-.571,3.45919l-1.27428,3.17842-2.53873,6.36122-2.53837,6.361-1.26918,3.18061c-.65664.9671-1.25825,1.95606-1.96263,2.904.14212-1.17243.38663-2.30388.57611-3.45718l1.26955-3.18061,2.53836-6.361,2.53837-6.36122,1.26408-3.18261C212.744,250.91885,213.37408,249.94136,214.08537,248.99612Z"></path><rect width="6.106" height="21.829" x="198.24" y="249.297" fill="#ffba55" transform="rotate(-13.056 201.293 260.21)"></rect><path fill="#7ca1b1" d="M213.45805,278.50258v.39961a3.66326,3.66326,0,0,1-3.44955,3.84242H199.64605a3.66326,3.66326,0,0,1-3.44955-3.84242V263.34805a3.66327,3.66327,0,0,1,3.44955-3.84243H210.0085a3.66327,3.66327,0,0,1,3.44955,3.84243v15.15453Z"></path><rect width="17.261" height="1.493" x="196.197" y="265.409" fill="#fcfcfc"></rect><rect width="17.261" height="1.493" x="196.197" y="268.394" fill="#fcfcfc"></rect><rect width="79.74" height="152.28" x="488.046" y="97.134" fill="#a2aee6" rx="2"></rect><rect width="34.2" height="45.72" x="491.826" y="100.914" fill="#e5e1e5" rx="2"></rect><rect width="34.2" height="45.72" x="529.806" y="100.914" fill="#e5e1e5" rx="2"></rect><rect width="34.2" height="45.72" x="491.826" y="150.414" fill="#e5e1e5" rx="2"></rect><rect width="34.2" height="45.72" x="529.806" y="150.414" fill="#e5e1e5" rx="2"></rect><rect width="34.2" height="45.72" x="491.826" y="199.914" fill="#e5e1e5" rx="2"></rect><rect width="34.2" height="45.72" x="529.806" y="199.914" fill="#e5e1e5" rx="2"></rect><path fill="#a2aee6" d="M495.516 137.21348c1.69141-2.75879 3.47242-5.45435 5.26709-8.1405 1.78516-2.69263 3.63477-5.34 5.48438-7.98731 1.86914-2.63354 3.74-5.26587 5.67407-7.85364l2.90405-3.87964c.998-1.27221 1.96778-2.5642 2.99048-3.81884-.8374 1.38525-1.72754 2.73327-2.5896 4.10119l-2.676 4.04029c-1.78589 2.69226-3.635 5.33984-5.48584 7.98632-1.87036 2.6327-3.741 5.26539-5.67554 7.85267C499.48357 132.10789 497.54461 134.69224 495.516 137.21348zM500.05169 143.53855c1.6914-2.75879 3.47241-5.45447 5.26684-8.1405 1.7854-2.69263 3.63477-5.34009 5.48462-7.98731 1.86914-2.63354 3.74-5.26586 5.67408-7.85376l2.904-3.87963c.9978-1.2721 1.96753-2.56409 2.99023-3.81885-.83716 1.38537-1.72754 2.7334-2.5896 4.10119l-2.67578 4.04041c-1.78613 2.69214-3.63525 5.33984-5.48608 7.98621-1.87012 2.63281-3.74072 5.26538-5.67554 7.85278C504.01922 138.433 502.08025 141.01731 500.05169 143.53855zM533.4782 137.21348c1.69141-2.75879 3.47241-5.45435 5.26709-8.1405 1.7854-2.69263 3.63477-5.34 5.48462-7.98731 1.86914-2.63354 3.74-5.26587 5.67407-7.85364l2.90406-3.87964c.9978-1.27221 1.96753-2.5642 2.99023-3.81884-.8374 1.38525-1.72754 2.73327-2.5896 4.10119l-2.676 4.04029c-1.78589 2.69226-3.635 5.33984-5.48584 7.98632-1.87037 2.6327-3.74073 5.26539-5.67554 7.85267C537.446 132.10789 535.507 134.69224 533.4782 137.21348zM538.01385 143.53855c1.6914-2.75879 3.47241-5.45447 5.26709-8.1405 1.78515-2.69263 3.63476-5.34009 5.48437-7.98731 1.86914-2.63354 3.74-5.26586 5.67407-7.85376l2.90406-3.87963c.998-1.2721 1.96777-2.56409 2.99048-3.81885-.83741 1.38537-1.72754 2.7334-2.5896 4.10119l-2.676 4.04041c-1.78589 2.69214-3.635 5.33984-5.48584 7.98621-1.87036 2.63281-3.741 5.26538-5.67554 7.85278C541.98138 138.433 540.04241 141.01731 538.01385 143.53855zM495.516 184.951c1.69141-2.75879 3.47242-5.45447 5.26709-8.14051 1.78516-2.69262 3.63477-5.34008 5.48438-7.9873 1.86914-2.63355 3.74-5.266 5.67407-7.85376l2.90405-3.87964c.998-1.27209 1.96778-2.56409 2.99048-3.81885-.8374 1.38538-1.72754 2.7334-2.5896 4.1012l-2.676 4.04041c-1.78589 2.69213-3.635 5.33972-5.48584 7.9862-1.87036 2.63281-3.741 5.26538-5.67554 7.85266C499.48357 179.84544 497.54461 182.42979 495.516 184.951zM500.05169 191.276c1.6914-2.75867 3.47241-5.45435 5.26684-8.1405 1.7854-2.69263 3.63477-5.34 5.48462-7.98719 1.86914-2.63354 3.74-5.266 5.67408-7.85376l2.904-3.87964c.9978-1.27221 1.96753-2.5642 2.99023-3.81884-.83716 1.38525-1.72754 2.73327-2.5896 4.10119l-2.67578 4.04029c-1.78613 2.69226-3.63525 5.33984-5.48608 7.98632-1.87012 2.6327-3.74072 5.26539-5.67554 7.85267C504.01922 186.17051 502.08025 188.75486 500.05169 191.276zM533.4782 184.951c1.69141-2.75879 3.47241-5.45447 5.26709-8.14051 1.7854-2.69262 3.63477-5.34008 5.48462-7.9873 1.86914-2.63355 3.74-5.266 5.67407-7.85376l2.90406-3.87964c.9978-1.27209 1.96753-2.56409 2.99023-3.81885-.8374 1.38538-1.72754 2.7334-2.5896 4.1012l-2.676 4.04041c-1.78589 2.69213-3.635 5.33972-5.48584 7.9862-1.87037 2.63281-3.74073 5.26538-5.67554 7.85266C537.446 179.84544 535.507 182.42979 533.4782 184.951zM538.01385 191.276c1.6914-2.75867 3.47241-5.45435 5.26709-8.1405 1.78515-2.69263 3.63476-5.34 5.48437-7.98719 1.86914-2.63354 3.74-5.266 5.67407-7.85376l2.90406-3.87964c.998-1.27221 1.96777-2.5642 2.99048-3.81884-.83741 1.38525-1.72754 2.73327-2.5896 4.10119l-2.676 4.04029c-1.78589 2.69226-3.635 5.33984-5.48584 7.98632-1.87036 2.6327-3.741 5.26539-5.67554 7.85267C541.98138 186.17051 540.04241 188.75486 538.01385 191.276zM495.516 234.3906c1.69141-2.75879 3.47242-5.45434 5.26709-8.1405 1.78516-2.69263 3.63477-5.34 5.48438-7.9873 1.86914-2.63355 3.74-5.26587 5.67407-7.85364l2.90405-3.87964c.998-1.27222 1.96778-2.56421 2.99048-3.81885-.8374 1.38525-1.72754 2.73328-2.5896 4.1012l-2.676 4.04028c-1.78589 2.69226-3.635 5.33984-5.48584 7.98633-1.87036 2.63269-3.741 5.26538-5.67554 7.85266C499.48357 229.28513 497.54461 231.86948 495.516 234.3906zM500.05169 240.71568c1.6914-2.75879 3.47241-5.45447 5.26684-8.14051 1.7854-2.69262 3.63477-5.34008 5.48462-7.9873 1.86914-2.63355 3.74-5.26587 5.67408-7.85364l2.904-3.87976c.9978-1.27209 1.96753-2.56409 2.99023-3.81873-.83716 1.38526-1.72754 2.73328-2.5896 4.10108l-2.67578 4.0404c-1.78613 2.69214-3.63525 5.33985-5.48608 7.98633-1.87012 2.63269-3.74072 5.26526-5.67554 7.85266C504.01922 235.61009 502.08025 238.19444 500.05169 240.71568zM533.4782 234.3906c1.69141-2.75879 3.47241-5.45434 5.26709-8.1405 1.7854-2.69263 3.63477-5.34 5.48462-7.9873 1.86914-2.63355 3.74-5.26587 5.67407-7.85364l2.90406-3.87964c.9978-1.27222 1.96753-2.56421 2.99023-3.81885-.8374 1.38525-1.72754 2.73328-2.5896 4.1012l-2.676 4.04028c-1.78589 2.69226-3.635 5.33984-5.48584 7.98633-1.87037 2.63269-3.74073 5.26538-5.67554 7.85266C537.446 229.28513 535.507 231.86948 533.4782 234.3906zM538.01385 240.71568c1.6914-2.75879 3.47241-5.45447 5.26709-8.14051 1.78515-2.69262 3.63476-5.34008 5.48437-7.9873 1.86914-2.63355 3.74-5.26587 5.67407-7.85364l2.90406-3.87976c.998-1.27209 1.96777-2.56409 2.99048-3.81873-.83741 1.38526-1.72754 2.73328-2.5896 4.10108l-2.676 4.0404c-1.78589 2.69214-3.635 5.33985-5.48584 7.98633-1.87036 2.63269-3.741 5.26526-5.67554 7.85266C541.98138 235.61009 540.04241 238.19444 538.01385 240.71568z"></path><path fill="#fcfcfc" d="M308.97722,334.13123c-.05283-1.18173-.02-2.34433.01567-3.506l.755-3.34022,1.49911-6.683,1.49875-6.683.74956-3.34131c.49485-1.05893.93248-2.13061,1.47762-3.17824.04518,1.18009-.01677,2.33594-.0215,3.50474l-.7492,3.34149-1.49911,6.683-1.49875,6.683-.74373,3.34258C309.9968,332.02011,309.53,333.08524,308.97722,334.13123Z"></path><path fill="#f65b2b" d="M312.33985,337.322q-1.28613-6.7348-2.44836-13.48748c-.40156-2.24867-.88839-4.4855-1.11322-6.7595a52.10149,52.10149,0,0,1-.30063-6.8752l.14758-.021a52.03662,52.03662,0,0,1,1.63066,6.68589c.41869,2.24631.57574,4.53.8177,6.80159q.76851,6.80834,1.41385,13.6347Z"></path><path fill="#ffba55" d="M318.88253,311.26335c-.13519,1.17517-.35127,2.31772-.571,3.45918l-1.27428,3.17843-2.53873,6.36122-2.53837,6.361-1.26918,3.18061c-.65664.9671-1.25825,1.95607-1.96263,2.904.14212-1.17243.38663-2.30387.57611-3.45718l1.26955-3.18061,2.53836-6.361,2.53837-6.36122,1.26408-3.18262C317.5412,313.18607,318.17124,312.20858,318.88253,311.26335Z"></path><rect width="6.106" height="21.829" x="303.037" y="311.564" fill="#ffba55" transform="rotate(-13.056 306.09 322.478)"></rect><path fill="#7ca1b1" d="M318.25521,340.7698v.39961a3.66327,3.66327,0,0,1-3.44955,3.84243H304.44321a3.66327,3.66327,0,0,1-3.44955-3.84243V325.61527a3.66327,3.66327,0,0,1,3.44955-3.84243h10.36245a3.66327,3.66327,0,0,1,3.44955,3.84243V340.7698Z"></path><rect width="17.261" height="1.493" x="300.994" y="327.677" fill="#fcfcfc"></rect><rect width="17.261" height="1.493" x="300.994" y="330.662" fill="#fcfcfc"></rect><rect width="69.74" height="59.242" x="375.248" y="264.345" fill="#e5e1e5" transform="rotate(-180 410.118 293.966)"></rect><rect width="57.617" height="2.786" x="381.309" y="315.399" fill="#a5a5a5" transform="rotate(-180 410.118 316.791)"></rect><line x1="410.118" x2="410.118" y1="323.586" y2="341.721" fill="none" stroke="#e5e1e5" stroke-miterlimit="10" stroke-width="1.629"></line><polygon fill="#e5e1e5" points="383.631 344.955 436.605 344.955 436.605 337.649 410.118 333.576 383.631 337.649 383.631 344.955"></polygon><rect width="61.352" height="52.116" x="379.442" y="267.908" fill="none" stroke="#a5a5a5" stroke-miterlimit="10" stroke-width=".358" transform="rotate(-180 410.118 293.966)"></rect><rect width="58.35" height="4.105" x="380.943" y="269.657" fill="#6c7fd8" transform="rotate(-180 410.118 271.71)"></rect><rect width="16.567" height="15.687" x="421.61" y="276.973" fill="#a5a5a5" transform="rotate(-180 429.893 284.817)"></rect><rect width="16.567" height="15.687" x="401.818" y="276.973" fill="#777677" transform="rotate(-180 410.101 284.817)"></rect><rect width="16.567" height="15.687" x="382.059" y="276.973" fill="#a5a5a5" transform="rotate(-180 390.342 284.817)"></rect><g clip-path="url(#a)"><path fill="#f9977a" d="M430.46225,276.74645a6.497,6.497,0,0,0-3.01542.42922,5.199,5.199,0,0,0-2.81271,2.50207,7.92377,7.92377,0,0,0-.36443,2.79933,20.2437,20.2437,0,0,0-.28645,2.67624,9.32173,9.32173,0,0,0,.58187,2.60459c.47961,1.30915.26108,2.08039.477,2.318.87029.95779,3.2979.03228,3.40827,1.33946.06814.80714-.54052.99223-.43525,1.93533.13647,1.22264,4.0467.33426,5.18041-.34408a2.85734,2.85734,0,0,0,1.31192-2.54267c-.127-.75913-.976-4.30695-.93962-4.77287.13168-1.684.96252-1.935,1.5135-3.99255a3.14762,3.14762,0,0,0-.68892-3.00093A6.42942,6.42942,0,0,0,430.46225,276.74645Z"></path><ellipse cx="424.697" cy="283.875" fill="#0a0709" rx=".34" ry=".423" transform="rotate(-3.202 424.696 283.875)"></ellipse><ellipse cx="427.757" cy="283.704" fill="#0a0709" rx=".34" ry=".423" transform="rotate(-3.202 427.756 283.704)"></ellipse><path fill="#1e1d22" d="M423.96266 283.15793a.21349.21349 0 00.13793-.0501h0a1.81492 1.81492 0 012.04958-.10654.21466.21466 0 10.21308-.37271 2.2792 2.2792 0 00-2.53919.15129.21442.21442 0 00.1386.37806zM427.13405 282.98025a.21348.21348 0 00.13793-.05009h0a1.8139 1.8139 0 012.04959-.1062.21466.21466 0 00.21307-.37272 2.27933 2.27933 0 00-2.53918.151.21441.21441 0 00.13859.37805z"></path><path fill="#dd765e" d="M426.56488 283.10021a1.9182 1.9182 0 01-.12807 1.0326 4.268 4.268 0 01-.482.93291l-.15989.21374a.41675.41675 0 00-.09384.292.68183.68183 0 00.31577.4756 1.23024 1.23024 0 001.06395.07477 1.32047 1.32047 0 01-.99908-.16363.612.612 0 01-.25073-.39542c-.01912-.14286.13676-.26112.23963-.41333a3.89374 3.89374 0 00.46872-.97814A1.6831 1.6831 0 00426.56488 283.10021zM432.13386 282.93193a1.29257 1.29257 0 01.334.14244 1.57009 1.57009 0 01.284.21163 5.09226 5.09226 0 01.49887.534 1.37638 1.37638 0 00-.1563-.34673 1.57519 1.57519 0 00-.248-.29448A.89242.89242 0 00432.13386 282.93193z"></path><path fill="#dd765e" d="M432.508,284.67641a2.60564,2.60564,0,0,1-.03515-.78425,1.752,1.752,0,0,1,.07339-.3797c.032-.1271.08566-.24712.13267-.37714a1.14249,1.14249,0,0,0-.23579.33865,1.37669,1.37669,0,0,0-.11238.403A1.24136,1.24136,0,0,0,432.508,284.67641Z"></path><path fill="#1e1d22" d="M431.53123,285.34718a3.31042,3.31042,0,0,1,.14224-1.41779c.20764-.63107.45772-1.48909,1.05861-1.57888.44275-.06617.615-.19367.79926.2269a2.54765,2.54765,0,0,1-.40146,2.06927c-.41492.80689-.79481.99923-.77166,1.54013.01762.41263,1.24153,1.18355,1.45562,1.01.43643-.3537.1324-1.32349,1.24234-3.734.701-1.52213,1.04579-1.8196,1.0849-2.74752a3.1297,3.1297,0,0,0-.78928-2.43676c-.39917-.34476-.60828-.22122-2.29391-.82638a13.60084,13.60084,0,0,1-1.3736-.54241c-1.35168-.64309-1.34311-1.01326-2.12282-1.1885-.70437-.15828-.72891.14005-2.05725.13572-1.28069-.00414-1.40981-.282-1.99048-.0807A2.91353,2.91353,0,0,0,423.959,277.549a3.53165,3.53165,0,0,0-.30314,1.67,3.186,3.186,0,0,0,.71227,1.56885c.17591.16022.79615-.85472,1.14335-1.24292.34047-.38033.75838-.25578,1.31856-.25229.54619.00339.53537.344,1.3571.59664.29277.09,1.41342-.48926,1.82.12613.43321.65568.74516.72061.59485,1.36169a4.76484,4.76484,0,0,0,.20259,1.84081,16.00132,16.00132,0,0,1-.28464,3.14758C430.33567,286.80253,431.655,286.41219,431.53123,285.34718Z"></path><path fill="#dd765e" d="M427.86871,287.57388a3.54567,3.54567,0,0,1-1.26241.45072,1.565,1.565,0,0,1-.628-.05246,3.83521,3.83521,0,0,1-.64139-.25663,1.35455,1.35455,0,0,0,.54362.50494,1.42765,1.42765,0,0,0,.36687.13125,1.73362,1.73362,0,0,0,.39275.013,1.62678,1.62678,0,0,0,.71687-.26019A1.55194,1.55194,0,0,0,427.86871,287.57388Z"></path><path fill="#1e1d22" d="M426.53253,286.19736c-.72371.01544-.87917-.33791-2.03294,1.37652a8.63608,8.63608,0,0,1,4.19257,0S427.56874,286.17526,426.53253,286.19736Z"></path></g><text fill="#fcfafc" font-family="MyriadPro-Regular, Myriad Pro" font-size="8.014" transform="matrix(-1 0 0 1 413.323 287.17)">M</text><rect width="16.567" height="15.687" x="421.61" y="295.271" fill="#777677" transform="rotate(-180 429.893 303.114)"></rect><rect width="16.567" height="15.687" x="401.818" y="295.271" fill="#a5a5a5" transform="rotate(-180 410.101 303.114)"></rect><rect width="16.567" height="15.687" x="382.059" y="295.271" fill="#777677" transform="rotate(-180 390.342 303.114)"></rect><g clip-path="url(#b)"><path fill="#160b07" d="M394.55771,311.26027c-1.41931,1.49086-7.36743.26712-5.17241-.88141-.61068-.09539-1.106-.14682-1.5681-.26712-3.06981-.79911-6.27366-5.06238-5.29477-8.38481.85313-2.89567,4.57445-4.02773,5.47981-4.30321a7.0516,7.0516,0,0,1,6.77748,1.18911,8.03793,8.03793,0,0,1,2.48639,3.511C397.79655,303.47514,397.79354,307.86133,394.55771,311.26027Z"></path><path fill="#f9977a" d="M386.4627,310.462a2.40539,2.40539,0,0,1-.23523,2.01584h2.97986l.51164-1.5555Z"></path><path fill="#160b07" d="M395.64964,302.07823c1.91262-.53659,4.23346,2.17762,4.977,3.04716a13.6358,13.6358,0,0,1,2.74243,5.78957c.38045,1.45191.29444,1.77706.711,5.58644.73465,6.71824,1.20665,7.57669,1.82828,8.22725,1.20337,1.25938,1.85578.57617,4.57071,2.33615,1.8358,1.19008,3.54323,2.29692,4.16443,4.36756.49061,1.63538.37566,4.11187-1.01572,5.2817-2.61376,2.1976-8.58074-1.18391-11.17285-3.04712-6.55409-4.71107-8.47234-11.89235-9.03984-14.01686a25.6952,25.6952,0,0,1-.60943-10.2587C393.13337,306.62913,393.60524,302.65178,395.64964,302.07823Z"></path><path fill="#f9977a" d="M384.646,303.54119c.74543-3.6628,3.37889-6.2191,5.882-5.70969,1.93195.39319,3.2204,2.4983,3.36559,5.12237a.714.714,0,0,1,.6001-.0871c.54368.202.65816,1.24375.2557,2.32669-.33979.91435-.93908,1.5633-1.44479,1.62237-1.05593,2.87174-3.31409,4.71978-5.47606,4.27979C385.32546,310.58619,383.9006,307.204,384.646,303.54119Z"></path><path fill="#dd765e" d="M387.66056,303.24528a2.08085,2.08085,0,0,1,.00719,1.32439,4.81043,4.81043,0,0,1-.54376,1.2256c-.12159.19182-.3099.34363-.28113.51945a.75641.75641,0,0,0,.3242.47949,1.63234,1.63234,0,0,0,1.24036.166,1.52067,1.52067,0,0,1-1.31732-.05385.84275.84275,0,0,1-.40736-.5762.51489.51489,0,0,1,.10539-.36422l.1898-.26989a5.28284,5.28284,0,0,0,.56177-1.17022A2.37141,2.37141,0,0,0,387.66056,303.24528Z"></path><path fill="#160b07" d="M391.57068 304.15449a.17672.17672 0 00.09384-.28652 2.96605 2.96605 0 00-2.53417-1.02049.17675.17675 0 10.06115.34818 2.647 2.647 0 012.2037.90129A.17679.17679 0 00391.57068 304.15449zM386.9287 302.84767a.17681.17681 0 00.02209-.33751 3.41126 3.41126 0 00-2.13709-.03369.17678.17678 0 00.11763.33342 3.08558 3.08558 0 011.89431.03109A.17688.17688 0 00386.9287 302.84767zM391.19729 304.9276a3.20589 3.20589 0 00-1.17183-.59439 1.55324 1.55324 0 00-.63576-.01174 2.12572 2.12572 0 00-.61749.238 1.37427 1.37427 0 01.584-.3698 1.3416 1.3416 0 01.70718-.029 1.85187 1.85187 0 01.63956.288A1.97063 1.97063 0 01391.19729 304.9276z"></path><circle cx="389.604" cy="304.604" r=".396" fill="#160b07"></circle><circle cx="385.831" cy="304.132" r=".396" fill="#160b07"></circle><path fill="#160b07" d="M387.1516,304.53912a3.20587,3.20587,0,0,0-1.17183-.59438,1.55324,1.55324,0,0,0-.63576-.01174,2.1258,2.1258,0,0,0-.61749.23794,1.3744,1.3744,0,0,1,.584-.36979,1.341,1.341,0,0,1,.70719-.029,1.852,1.852,0,0,1,.63956.288A1.97076,1.97076,0,0,1,387.1516,304.53912Z"></path><path fill="#dd765e" d="M394.5577,304.13362a1.72939,1.72939,0,0,0-.28048-.35194.25245.25245,0,0,0-.32486-.04282,1.18659,1.18659,0,0,0-.29668.29912c-.09506.1175-.17252.25043-.27485.37372a1.7721,1.7721,0,0,1,.16028-.447.91319.91319,0,0,1,.32371-.37938.37067.37067,0,0,1,.2818-.04931.41208.41208,0,0,1,.22765.15127A.89155.89155,0,0,1,394.5577,304.13362Z"></path><path fill="#dd765e" d="M393.90921,305.33326a.87437.87437,0,0,1-.18327-.41554,1.51841,1.51841,0,0,1-.01612-.45622,1.93188,1.93188,0,0,1,.10085-.44109l.08556-.20814c.03835-.06555.07076-.13263.11366-.19505-.03852.29924-.09738.57926-.12432.86263a3.74474,3.74474,0,0,0-.025.4239A1.86505,1.86505,0,0,0,393.90921,305.33326Z"></path><circle cx="394.111" cy="306.313" r=".787" fill="#ffcb33"></circle><path fill="#dd2f22" d="M389.555,308.35679s-2.208,1.383-3.461-.14957"></path><path fill="#160b07" d="M388.5669,298.43123c.55043.132.85494.554,1.464,1.39814,1.17643,1.63051,1.87334,3.87268,2.68755,4.27011a.50228.50228,0,0,0,.29769.06046c.31847-.04657.4468-.459.80083-1.03944.26755-.43862.38395-.514.53991-.75978a3.5458,3.5458,0,0,0,.15982-3.19881,3.75677,3.75677,0,0,0-2.06571-1.8228,5.48631,5.48631,0,0,0-4.10245.0755,6.66387,6.66387,0,0,0-3.80134,3.8412C384.66065,301.34935,386.73234,297.99132,388.5669,298.43123Z"></path></g><g clip-path="url(#c)"><path fill="#f9977a" d="M431.2485,294.4223a6.64409,6.64409,0,0,0-3.14361.27312,5.3935,5.3935,0,0,0-3.05388,2.458,8.418,8.418,0,0,0-.53889,2.91324,27.09173,27.09173,0,0,0-.08981,2.82219c.00027.65044.01352,1.58166.08981,2.73116a6.389,6.389,0,0,0,.35926,2.458c.8447,1.05511,2.656.07979,2.69453,1.4566.02379.85015-.50915,1.38826.19091,2.15081.86818.94558,4.16607.58773,5.37788-.0569.1652-.08788,2.58873-1.40961,2.42509-2.91324-.08744-.80326-.82916-.88635-1.34731-2.09389a4.88321,4.88321,0,0,1-.26944-2.64011c.23362-1.75769,1.10747-1.972,1.79638-4.09674a3.34,3.34,0,0,0-.5389-3.18635A6.63654,6.63654,0,0,0,431.2485,294.4223Z"></path><ellipse cx="424.609" cy="301.557" fill="#0a0709" rx=".352" ry=".444"></ellipse><ellipse cx="427.603" cy="301.557" fill="#0a0709" rx=".352" ry=".444"></ellipse><path fill="#161616" d="M426.1031 300.26341a.21757.21757 0 01-.12049-.03613 1.85784 1.85784 0 00-2.12613-.00867.221.221 0 01-.31086-.04553.22662.22662 0 01.04349-.31436 2.33373 2.33373 0 012.6352-.0094.22719.22719 0 01.0656.31147A.22142.22142 0 01426.1031 300.26341zM429.09693 300.26341a.21757.21757 0 01-.12049-.03613 1.87854 1.87854 0 00-2.12541-.00939.21985.21985 0 01-.31122-.04373.22768.22768 0 01.04313-.3158 2.338 2.338 0 012.6352-.009.22719.22719 0 01.0656.31147A.22186.22186 0 01429.09693 300.26341z"></path><path fill="#dd765e" d="M425.51654,301.00474a1.78941,1.78941,0,0,1-.08846,1.12134,4.10321,4.10321,0,0,1-.54137.99792c-.1152.15352-.28328.26838-.27179.41924a.645.645,0,0,0,.23649.42927,1.35364,1.35364,0,0,0,1.02381.23012,1.25972,1.25972,0,0,1-1.096-.14078.71761.71761,0,0,1-.29906-.51712.44048.44048,0,0,1,.11395-.30061l.17776-.21468a4.49788,4.49788,0,0,0,.55247-.94972A2.038,2.038,0,0,0,425.51654,301.00474Z"></path><path fill="#161616" d="M436.09868,300.52189a4.6303,4.6303,0,0,0,.44907-3.00426c-.2095-.67522-.76337-1.46043-1.34722-1.45663-.37049,0-.43792.31864-1.16759.81933a5.95166,5.95166,0,0,1-1.79648.81937c-1.01418.2731-1.38459.06068-1.79629.45519a1.90019,1.90019,0,0,0-.44917,1.09247,8.20871,8.20871,0,0,0,0,2.367c.10106,1.54766.14226,2.32907-.26935,2.82219a1.4501,1.4501,0,0,1-1.2575.54621c-.28817-.05308-.37424-.22-.89824-.63724a4.39665,4.39665,0,0,0-1.2574-.81936c-.38548-.13276-.59134.64106-.98806.7283-.3143.0683-.84954-.59175-.988-.36414-.14226.23139-.0487.38313,0,1.1835.06734,1.138-.0973,1.21383,0,1.82077a3.23373,3.23373,0,0,0,.89824,1.82077,3.7696,3.7696,0,0,0,2.33518.81933,3.06611,3.06611,0,0,0,4.04185-2.458,7.92027,7.92027,0,0,0,.44907-3.0953,16.77525,16.77525,0,0,1,0-2.458,1.692,1.692,0,0,1,.44917-1.27456,1.09683,1.09683,0,0,1,1.07778-.18207c.66991.29589.82706,1.48319.71851,2.276a5.81627,5.81627,0,0,1-.41536,1.43955,3.90469,3.90469,0,0,0-.00443,1.39273c.036.39579.87646.00509,1.11593-.41976a6.567,6.567,0,0,0,.38173-2.50356C435.4475,301.61056,435.66834,301.66747,436.09868,300.52189Zm-11.2273,5.1823h0a.40557.40557,0,0,1,.2653-.3822,1.61647,1.61647,0,0,1,1.98361.48227.31315.31315,0,0,1-.38.46732,2.14926,2.14926,0,0,0-1.37087-.1771A.401.401,0,0,1,424.87138,305.70419Z"></path><path fill="#dd765e" d="M432.61949,301.00474a.91819.91819,0,0,1,.72274.30061,1.65006,1.65006,0,0,1,.23952.32326,1.45581,1.45581,0,0,1,.14162.37265,5.34821,5.34821,0,0,0-.485-.58909,1.63194,1.63194,0,0,0-.28159-.23853A1.33093,1.33093,0,0,0,432.61949,301.00474Z"></path><path fill="#dd765e" d="M432.90557,302.85546a1.3493,1.3493,0,0,1,.26586-1.60553c-.05606.13354-.11854.25621-.159.38758a1.86565,1.86565,0,0,0-.0979.39374A2.77194,2.77194,0,0,0,432.90557,302.85546Z"></path><ellipse cx="424.493" cy="301.465" fill="none" stroke="#065ea5" stroke-miterlimit="10" stroke-width=".331" rx="1.368" ry="1.387"></ellipse><ellipse cx="427.743" cy="301.465" fill="none" stroke="#065ea5" stroke-miterlimit="10" stroke-width=".331" rx="1.368" ry="1.387"></ellipse><line x1="425.861" x2="426.375" y1="301.465" y2="301.465" fill="none" stroke="#065ea5" stroke-miterlimit="10" stroke-width=".331"></line><path fill="none" stroke="#065ea5" stroke-miterlimit="10" stroke-width=".331" d="M429.11088,301.465l3.89633-1.38654s1.2342-.17682,1.14953,1.64545"></path><path fill="#161616" d="M424.79567,297.8762s4.61089.7857,5.78919.16352a3.195,3.195,0,0,0,4.61567-1.97872s-3.34513-3.171-7.24536-1.71117C424.48861,295.64738,424.79567,297.8762,424.79567,297.8762Z"></path></g><path fill="#f9977a" d="M411.46627,334.41093s15.04967-22.725,15.41764-22.71975,2.88677.26007-4.30667,12.24835c0,0,3.35991.47213,3.66479,6.98039a6.85587,6.85587,0,0,1-2.40217,5.52025c-1.97093,1.68421-4.75416,3.717-6.48837,3.49365Z"></path><path fill="#f65b2b" d="M276.05078,344.48877c-.10693-.666-10.33691-66.9624,19.10938-97.54541,11.95459-12.416,28.84033-17.395,50.188-14.79541l.43946.05322V251.5835h-1V233.08789c-20.814-2.439-37.26416,2.45606-48.90674,14.54932-29.10449,30.22754-18.94873,96.03222-18.84277,96.69336Z"></path><path fill="#f65b2b" d="M367.45117 271.84131H321.57764l.06494-.55811a23.03078 23.03078 0 0145.74365 0zM301.20605 345.45557H272.53711V343.9585a1.37515 1.37515 0 011.37353-1.37354h25.92188a1.37515 1.37515 0 011.37353 1.37354z"></path><rect width="7.388" height="117.187" x="283.139" y="350.68" fill="#935b50" transform="rotate(-180 286.833 409.273)"></rect><rect width="222.011" height="5.666" x="268.995" y="345.014" fill="#935b50" rx="1.274" transform="rotate(-180 380 347.847)"></rect><rect width="7.388" height="117.187" x="468.884" y="350.68" fill="#935b50" transform="rotate(-180 472.578 409.273)"></rect><path fill="#c38f86" d="M279.87676,350.67994H479.6181a2.54728,2.54728,0,0,1,2.54728,2.54728v15.98553a0,0,0,0,1,0,0H277.32948a0,0,0,0,1,0,0V353.22722a2.54728,2.54728,0,0,1,2.54728-2.54728Z" transform="rotate(-180 379.747 359.946)"></path><path fill="#f9977a" d="M350.27786,300.13492l-.97123-35.0701,26.18616,1.4366-1.14862,20.93685a8.32149,8.32149,0,0,1-8.76484,7.85317l-.597-.03275-.1951,5.98647Z"></path><polygon fill="#dd765e" points="364.982 295.259 360.795 295.029 364.787 301.245 364.982 295.259"></polygon><path fill="#160b07" d="M348.254,294.341s13.02289,2.8452,18.1151-12.20778c0,0-5.67367-3.51106.37191-6.77916,0,0,3.22666-.48961,3.2502,1.51156l5.5016-10.36416s4.98551,1.47343,5.04781-4.52276c0,0,5.35179-2.77287-.88274-5.7814,0,0,.67422-7.42919-6.66978-2.36578,0,0-4.18-11.29527-17.26959,3.71894,0,0-20.0335.63417-11.5074,17.76751Z"></path><path fill="#f9977a" d="M441.28462 442.21768s1.51113 4.58188 3.0466 6.60233 17.805 16.58476 17.805 16.58476l-29.1464-1.2091s-8.4191-.103-5.49363-9.136 2.39817-14.21408 2.39817-14.21408zM455.19192 413.14794s2.3363 4.22123 4.2205 5.92114 20.57694 12.987 20.57694 12.987l-28.86337 4.2285s-8.29159 1.46337-7.09576-7.95592-.28513-14.41214-.28513-14.41214z"></path><path fill="#f73c4f" d="M456.1441 458.89441c-8.043-5.66589-10.36608-9.44641-10.36608-9.44641s-.561-2.81854-3.25519 2.25366c-1.97654 3.72111-6.57151 8.81093-8.87961 11.25885a2.06715 2.06715 0 01-1.58516.64563l-3.08-.11672a2.07679 2.07679 0 00-2.15425 2.14583h0a2.0768 2.0768 0 002.07656 2.00627l31.72471-.0146a2.08051 2.08051 0 001.67392-3.31124A27.74469 27.74469 0 00456.1441 458.89441zM472.273 425.46063c-8.719-4.55768-11.51952-7.99945-11.51952-7.99945s-.92722-2.72015-2.93015 2.6626c-1.46944 3.94894-5.35431 9.5994-7.32 12.32989a2.06716 2.06716 0 01-1.48636.8487l-3.0686.28979a2.0768 2.0768 0 00-1.853 2.41077h0a2.0768 2.0768 0 002.32262 1.71542l31.44665-4.19116a2.08051 2.08051 0 001.22341-3.50279A27.74454 27.74454 0 00472.273 425.46063z"></path><path fill="#8b9d36" d="M333.19282,355.38869s-13.71071-54.0338,15.37023-56.57838l16.22423,2.43485s6.25619,4.52419,11.57254,15.02059S386.99254,336.168,386.99254,336.168l27.536-6.81584,3.68055,10.63272s-27.24115,14.83046-32.87558,15.01221c0,0-11.2472,2.16-15.87683-8.39353l.08729,10.606S338.46374,359.20557,333.19282,355.38869Z"></path><path fill="#ffba55" d="M392.77345,365.11949,425.31,353.798a16.40739,16.40739,0,0,1,20.78453,9.80362,279.72,279.72,0,0,1,13.11526,47.268,2.00638,2.00638,0,0,1-1.42254,2.269l-10.27,2.95652-1.01565,26.06826a2,2,0,0,1-1.99848,1.92213H429.77371a2,2,0,0,1-1.97468-1.68278l-6.99991-43.57442-16.17626,1.454s-84.88,17.2668-71.43-44.89369l36.35116,1.82086,4.24284,3.93427A18.82521,18.82521,0,0,0,392.77345,365.11949Z"></path><rect width="5" height="68.462" x="336.836" y="398.961" fill="#c38f86"></rect><rect width="5" height="68.462" x="385.836" y="398.961" fill="#c38f86"></rect><path fill="#5e7c24" d="M386.99254 336.168a3.09833 3.09833 0 01-.13229 1.6803 3.04692 3.04692 0 01-.9546 1.38879 2.63437 2.63437 0 011.08689-3.06909zM371.72505 350.66309a61.34549 61.34549 0 01-4.486-7.00379 60.61735 60.61735 0 01-3.61356-7.49133 60.62689 60.62689 0 014.486 7.00378A61.33394 61.33394 0 01371.72505 350.66309z"></path><path fill="#e6952a" d="M385.90565,402.366c8.68682-4.19727,17.43391-8.2616,26.17808-12.33228l13.1548-6.02124q6.56979-3.02729,13.17751-5.971l-.06217.03406a3.64315,3.64315,0,0,1,2.95857-.2904,5.12836,5.12836,0,0,1,2.30727,1.70312,14.85722,14.85722,0,0,1,2.36255,4.89526,50.32271,50.32271,0,0,1,1.70206,10.51856,153.83219,153.83219,0,0,1-.16709,21.193c.04114-3.53088.11553-7.0592.029-10.58532-.08412-3.52442-.20185-7.04822-.5435-10.54944a54.51555,54.51555,0,0,0-1.85-10.32154,14.04167,14.04167,0,0,0-2.23312-4.57483,4.22909,4.22909,0,0,0-1.89292-1.39843,2.743,2.743,0,0,0-2.15807.20227l-.047.027-.01553.0072q-6.57151,3.02361-13.17521,5.97607l-13.19793,5.926C403.6087,394.69812,394.78731,398.59851,385.90565,402.366Z"></path><path fill="#e6952a" d="M458.10088 405.03662a27.27708 27.27708 0 01-5.00952 2.36377 26.963 26.963 0 01-5.35272 1.42517 26.956 26.956 0 015.00952-2.36377A27.269 27.269 0 01458.10088 405.03662zM426.90339 436.82739a87.09442 87.09442 0 019.903-.49963 86.09382 86.09382 0 019.90305.49963 86.067 86.067 0 01-9.90305.49976A87.12458 87.12458 0 01426.90339 436.82739zM420.79912 398.82837a8.12112 8.12112 0 01-1.74423-2.43921 8.02874 8.02874 0 01-.84579-2.87683 8.02738 8.02738 0 011.74423 2.43909A8.12057 8.12057 0 01420.79912 398.82837z"></path><path fill="#935b50" d="M321.28781,387.83211s-6.27057-18.81173-1.36317-57.25309c0,0,1.90844-12.9501,14.72222-13.90432s22.21965,19.81617,26.03653,41.05649,12.26851,40.22574,39.94084,40.75232c0,0,36.56513,6.25189-41.28791,9.79613C359.33632,408.27964,326.0589,408.55227,321.28781,387.83211Z"></path><path fill="#ffba55" d="M464.91634,324.871v.31476a3.1203,3.1203,0,0,1-3.20413,3.02659H452.087a3.1203,3.1203,0,0,1-3.20414-3.02659V312.93412a3.1203,3.1203,0,0,1,3.20414-3.02658h9.62521a3.12029,3.12029,0,0,1,3.20413,3.02658V324.871Z"></path><path fill="#fff" d="M470.22228,313.03088h-5.30591v1.81595H469.261V323.055h-4.34467v1.81595h5.30591a.93444.93444,0,0,0,.96124-.908V313.93886A.93453.93453,0,0,0,470.22228,313.03088Z"></path><rect width="3.982" height="3.762" x="456.9" y="316.174" fill="#fff" rx=".623"></rect><rect width=".902" height="6.267" x="458.44" y="309.907" fill="#e5caf3"></rect><path fill="#fff" d="M448.29537,339.86445h30.63375a0,0,0,0,1,0,0v4.5684a0,0,0,0,1,0,0H448.29537a2.02617,2.02617,0,0,1-2.02617-2.02617v-.51605A2.02617,2.02617,0,0,1,448.29537,339.86445Z" transform="rotate(180 462.6 342.149)"></path><path fill="#f65b2b" d="M445.31314,344.54978a.42742.42742,0,0,0,.43976.41392h31.72978a2.87246,2.87246,0,0,0,0-5.58379H445.7529a.42742.42742,0,0,0-.43976.41391v.32581a.42742.42742,0,0,0,.43976.41391h31.72978a1.68552,1.68552,0,0,1,0,3.27652H445.7529a.42742.42742,0,0,0-.43976.41392Z"></path><path fill="#fff" d="M453.0651,334.28066h30.63375a0,0,0,0,1,0,0v4.5684a0,0,0,0,1,0,0H453.0651a2.02617,2.02617,0,0,1-2.02617-2.02617v-.51605A2.02617,2.02617,0,0,1,453.0651,334.28066Z" transform="rotate(180 467.369 336.565)"></path><path fill="#ffba55" d="M450.08286,338.966a.42743.42743,0,0,0,.43977.41392h31.72978a2.87246,2.87246,0,0,0,0-5.58379H450.52263a.42743.42743,0,0,0-.43977.41392v.3258a.42743.42743,0,0,0,.43977.41392h31.72978a1.68551,1.68551,0,0,1,0,3.27651H450.52263a.42743.42743,0,0,0-.43977.41392Z"></path><path fill="#fff" d="M443.30166,328.69687h30.63375a0,0,0,0,1,0,0v4.5684a0,0,0,0,1,0,0H443.30166a2.02617,2.02617,0,0,1-2.02617-2.02617V330.723A2.02617,2.02617,0,0,1,443.30166,328.69687Z" transform="rotate(180 457.605 330.981)"></path><path fill="#f65b2b" d="M440.31942,333.3822a.42743.42743,0,0,0,.43977.41392H472.489a2.87246,2.87246,0,0,0,0-5.58379H440.75919a.42743.42743,0,0,0-.43977.41392v.3258a.42743.42743,0,0,0,.43977.41392H472.489a1.68551,1.68551,0,0,1,0,3.27651H440.75919a.42743.42743,0,0,0-.43977.41392Z"></path><path fill="#8b9d36" d="M516.65762,376.80378c2.3647,1.83745,6.53089,6.20108,6.64329,9.47381,0,0,7.65673-8.32542,5.47987-15.4453a13.29747,13.29747,0,0,0-6.08037-6.12445s3.00247-1.68434,6.1552,2.44987c0,0-1.12584-11.1773-16.70169-7.11988,0,0-6.08036-12.40216-18.12808-.68906,0,0,8.10695-1.03343,6.53058,1.49292a23.56541,23.56541,0,0,0-8.08832,4.08312,8.10413,8.10413,0,0,0-2.72115,5.65874c-.18754,3.024-.47527,9.00809.1127,9.09111.788.11479,5.96766-4.59337,9.45822-4.24884s-7.99455,10.6795-7.99455,10.6795,2.3647,8.95717,3.37815,8.84238c1.01314-.11479,4.69153-2.67946,3.19,0l-2.58951,2.067,3.37785,4.67,8.48233-3.75136s-3.75323-10.2585-.30025-7.46425c0,0,2.62708,3.48346,2.66465,6.08628,0,0,11.35346-4.9379,10.22761-8.32558a76.09471,76.09471,0,0,0-4.2911-9.15482,3.87107,3.87107,0,0,1-.46916-1.62047C514.95632,376.5932,515.18143,375.6554,516.65762,376.80378ZM515.26268,364.912c1.06354-.73376,3.6784-.26166,4.66038,2.13073,1.051,2.55828,1.007,5.41-.0562,6.14361-1.06354.73376-4.08494-.2232-4.84181-2.69861C514.18692,367.73183,514.19945,365.64564,515.26268,364.912Z"></path><path fill="#5e7c24" d="M512.15382,360.0378a42.03472,42.03472,0,0,0-3.35086,4.35684,25.52822,25.52822,0,0,0-2.37483,4.91687c-.61879,1.71526-1.117,3.4746-1.56409,5.25384-.453,1.78053-.88565,3.55917-1.24642,5.35547-.38226,1.79119-.71622,3.59423-.9898,5.40439-.28163,1.81037-.44363,3.63179-.6661,5.46245a30.53621,30.53621,0,0,1-3.23707,10.53147,36.73054,36.73054,0,0,0,1.798-5.19538,29.28518,29.28518,0,0,0,.95585-5.38752,85.36722,85.36722,0,0,1,1.52141-10.94437c.38176-1.80424.83694-3.59382,1.30869-5.37074a44.01959,44.01959,0,0,1,1.66795-5.28286,25.60123,25.60123,0,0,1,2.57037-4.91477A36.44823,36.44823,0,0,1,512.15382,360.0378Z"></path><path fill="#5e7c24" d="M507.7323 365.87327a16.77772 16.77772 0 00-1.84492.46441c-.60844.16854-1.20724.37031-1.79972.58505-1.18294.43619-2.348.91467-3.49148 1.44387-1.14969.51675-2.26584 1.10511-3.38822 1.68874-1.11887.592-2.20971 1.23608-3.33239 1.84884.487-.4128.99533-.79877 1.49952-1.19339.5277-.35826 1.04745-.73238 1.5877-1.075a28.27728 28.27728 0 013.36985-1.843 24.29273 24.29273 0 013.60879-1.33109A14.259 14.259 0 01507.7323 365.87327zM502.6006 383.63346c-.87229.67634-1.78034 1.22995-2.6672 1.80766q-.66665.42771-1.30206.88364a3.57425 3.57425 0 00-1.07758 1.12037 2.35189 2.35189 0 01.74855-1.48747 7.58178 7.58178 0 011.2882-1.04665A9.28868 9.28868 0 01502.6006 383.63346zM504.33976 375.45361a29.98506 29.98506 0 012.86917 3.09475 31.68684 31.68684 0 012.46953 3.43443 22.09585 22.09585 0 011.92738 3.77982 11.5075 11.5075 0 01.88575 4.13237 16.28449 16.28449 0 00-1.33249-3.94113 34.4146 34.4146 0 00-2.01667-3.63731c-.72334-1.187-1.5188-2.33124-2.31838-3.47531C506.01705 377.702 505.18393 376.5786 504.33976 375.45361z"></path><path fill="#8b9d36" d="M493.95067,411.33088l3.15272,2.90915s3.07765-3.25366,3.41544-.99523c0,0-.48792,2.25842-1.08844,2.44981,0,0,7.544,6.06713,9.06405,1.0718a48.18635,48.18635,0,0,1,2.30824-6.54561s1.68895.91869.22519,8.1533c0,0,5.83838-1.71569,8.00644-4.86322a2.25155,2.25155,0,0,0,.38137-1.25586c.02089-1.79944.25806-6.864,2.30889-4.96251,0,0,1.18227.57417.2815,4.42115,0,0,4.75145-5.35665,2.49451-8.649a3.29194,3.29194,0,0,0-4.03657-1.06509c-1.3195.57278-3.76776,1.62765-8.31017,3.57037A90.65575,90.65575,0,0,1,493.95067,411.33088Z"></path><path fill="#5e7c24" d="M504.33976 415.77115a18.00315 18.00315 0 011.55194-4.771 11.5996 11.5996 0 011.333-2.15989 5.16249 5.16249 0 01.91568-.90855 1.92 1.92 0 011.19941-.42866 2.03917 2.03917 0 00-.99412.66057 6.887 6.887 0 00-.72114.965 21.93511 21.93511 0 00-1.16566 2.14884C505.73412 412.75092 505.08851 414.26912 504.33976 415.77115zM514.59342 413.39793a14.98078 14.98078 0 01.39974-4.41127 11.31244 11.31244 0 01.73711-2.1163 3.321 3.321 0 011.49047-1.664 4.51974 4.51974 0 00-1.0354 1.85355c-.22015.68076-.40918 1.37367-.57861 2.07552C515.26494 410.54091 514.98131 411.965 514.59342 413.39793zM567.06359 361.24665s-7.58152 1.0879-.82571 6.44687c0 0 1.72649 1.45458 7.35633 3.13883C573.59421 370.83235 577.12225 355.48879 567.06359 361.24665z"></path><path fill="#50661a" d="M573.59417,370.83232c-.14031-.50248-.23231-1.00577-.35866-1.50042-.15286-.48752-.26033-.98508-.44112-1.45754a14.49989,14.49989,0,0,0-1.27112-2.71771,10.9075,10.9075,0,0,0-1.9093-2.28393,9.04037,9.04037,0,0,0-2.55039-1.62606,6.42592,6.42592,0,0,1,2.85582,1.248,8.55777,8.55777,0,0,1,2.14,2.32862,10.38191,10.38191,0,0,1,1.19891,2.914c.12956.5073.18792,1.02937.28012,1.53949C573.56384,369.79843,573.59548,370.31638,573.59417,370.83232Z"></path><path fill="#5e7c24" d="M557.4418,330.24673s8.40531-5.3551,10.92285,6.53553c0,0-4.36206-3.75466-4.41984-1.58263a16.64861,16.64861,0,0,1,3.16414,5.63768,6.17311,6.17311,0,0,1-.608,4.55791c-1.06843,1.94449-3.2271,5.76388-3.6065,5.591-.508-.23152-1.71781-5.14041-3.9035-6.26744s.53784,9.69286.53784,9.69286-4.87933,4.646-5.43018,4.18559-1.7143-3.46212-1.87542-1.22466l.71719,2.27575-3.80467,1.59837-3.52384-5.58407s6.20254-4.91966,3.08449-4.51318c0,0-2.90119,1.15088-3.93733,2.7505,0,0-4.749-7.42268-2.76748-9.09084a56.241,56.241,0,0,1,6.07374-4.0212,2.84633,2.84633,0,0,0,1.03344-1.00845c.27946-.48149.33391-.99463-.83582-.86623-2.10553.23114-6.25413,1.3369-7.59536,3.32307,0,0-1.25645-8.10336,2.79676-11.68214a9.35969,9.35969,0,0,1,5.9596-1.4624s-1.10854-2.19764-4.57208-.84508C544.85181,328.24663,549.86815,321.74821,557.4418,330.24673Z"></path><path fill="#50661a" d="M561.20854 343.55878c-.6895-1.671-1.32285-3.33389-2.11269-4.91125a13.15609 13.15609 0 00-1.3588-2.23351 3.47376 3.47376 0 00-2.09431-1.44166 3.061 3.061 0 012.46391 1.11554 9.2445 9.2445 0 011.55366 2.2767A16.157 16.157 0 01561.20854 343.55878zM543.94369 347.55906a12.635 12.635 0 011.60669-2.59859 12.06593 12.06593 0 012.18037-2.17867 8.01524 8.01524 0 012.76713-1.42058 5.33046 5.33046 0 013.06382.09924 6.97539 6.97539 0 00-2.91678.37131 9.6945 9.6945 0 00-2.5306 1.45141 17.55844 17.55844 0 00-2.19253 1.99858C545.24133 346.01013 544.57263 346.76089 543.94369 347.55906z"></path><path fill="#50661a" d="M551.82545,331.329a3.89138,3.89138,0,0,1,2.59518-1.52473,6.09655,6.09655,0,0,1,1.55386-.04148c.25842.02461.51293.07744.76964.11832l.75267.19494.18621.04821-.07683.19425c-.982,2.48008-1.8162,5.02795-2.64008,7.5699-.8062,2.55008-1.53246,5.12427-2.24345,7.70278q-1.0255,3.87891-1.91974,7.79337c-.59981,2.60914-1.1273,5.23425-1.66725,7.86208.32994-2.661.72626-5.31711,1.24592-7.95036.47255-2.64339,1.11394-5.25223,1.765-7.85695.65655-2.60422,1.43634-5.1761,2.276-7.727.83433-2.554,1.76929-5.07134,2.85481-7.53726l.10927.24226-.71731-.21373c-.24406-.0462-.48672-.10717-.73209-.14754a5.85254,5.85254,0,0,0-1.48837-.04821A3.92908,3.92908,0,0,0,551.82545,331.329Z"></path><path fill="#50661a" d="M554.42405,354.31583a13.91687,13.91687,0,0,0-1.00688-2.65444,2.38993,2.38993,0,0,0-.86134-.92813,2.92556,2.92556,0,0,0-1.345-.25049,1.98082,1.98082,0,0,1,1.53447-.20459,2.29084,2.29084,0,0,1,1.21739,1.06543A4.45706,4.45706,0,0,1,554.42405,354.31583Z"></path><path fill="#c4ce6e" d="M526.37858,415.77117s-1.49425-5.158-5.28736-2.242a7.61206,7.61206,0,0,0-2.62865,4.03285c-.68407,2.46862-1.27538,6.94219.40955,13.29081,0,0,3.8831-5.37216,6.75581-7.27289C528.8677,421.43637,530.95752,416.53674,526.37858,415.77117Z"></path><path fill="#8b9d36" d="M526.37855 415.77115a6.50212 6.50212 0 00-1.47321 1.51548 14.82606 14.82606 0 00-1.16175 1.76638 39.11022 39.11022 0 00-1.86962 3.80383c-.55662 1.30317-1.06051 2.62993-1.55777 3.96353l-1.44408 4.03253c.12334-.706.28655-1.4029.42907-2.10646.16481-.69733.37-1.384.5535-2.07793a36.78387 36.78387 0 011.43926-4.061 24.26755 24.26755 0 012.03976-3.81147A8.64575 8.64575 0 01526.37855 415.77115zM531.85319 344.12024s.12654-5.37689-4.36-3.78582a7.48092 7.48092 0 00-3.71341 3.01793c-1.39254 2.13631-3.29888 6.21019-3.60146 12.78 0 0 5.30978-3.901 8.61524-4.8131C532.52139 350.2907 535.98217 346.27931 531.85319 344.12024z"></path><path fill="#5e7c24" d="M531.85314,344.12022a6.39219,6.39219,0,0,0-1.85827.98186,14.56011,14.56011,0,0,0-1.63752,1.31884,38.40762,38.40762,0,0,0-2.9226,3.0375c-.921,1.06694-1.79892,2.17224-2.67222,3.28648l-2.58423,3.38753c.32913-.63245.69341-1.24411,1.04012-1.86852.36589-.61156.76733-1.20082,1.1502-1.80354a36.33921,36.33921,0,0,1,2.58915-3.41565,23.91622,23.91622,0,0,1,3.08782-2.99361A8.50823,8.50823,0,0,1,531.85314,344.12022Z"></path><path fill="#8b9d36" d="M565.715,415.77117s1.49426-5.158,5.28737-2.242A7.612,7.612,0,0,1,573.631,417.562c.68407,2.46862,1.27538,6.94219-.40955,13.29081,0,0-3.8831-5.37216-6.75581-7.27289C563.22591,421.43637,561.13609,416.53674,565.715,415.77117Z"></path><path fill="#5e7c24" d="M565.715,415.77115a8.64575,8.64575,0,0,1,3.04484,3.02494,24.26809,24.26809,0,0,1,2.03986,3.81147,36.825,36.825,0,0,1,1.43926,4.061c.1835.69392.38859,1.3806.5534,2.07793.14262.70356.30583,1.40049.42907,2.10646l-1.44408-4.03253c-.49716-1.3336-1.00115-2.66036-1.55777-3.96353a39.10943,39.10943,0,0,0-1.86952-3.80383,14.82682,14.82682,0,0,0-1.16185-1.76638A6.50212,6.50212,0,0,0,565.715,415.77115Z"></path><path fill="#50661a" d="M543.5991,439.40487l-.63155-.03214c3.11594-60.01927,11.825-76.07948,18.58317-78.9841a5.55559,5.55559,0,0,1,5.71765.61788l-.40978.48049a4.93857,4.93857,0,0,0-5.07325-.51182C556.3923,363.30932,546.85886,376.6015,543.5991,439.40487Z"></path><path fill="#50661a" d="M545.0719 439.49406c-5.59151-15.85451 3.36743-75.75246 3.7515-78.29471l.62512.09481c-.094.6211-9.32051 62.28352-3.78043 77.98938zM541.48189 439.46513c-.05142-.20489-5.18815-20.54449-11.76152-23.50054a3.46176 3.46176 0 00-3.19549.086l-.29247-.55923a4.103 4.103 0 013.74749-.10285c6.85058 3.0814 11.90294 23.0747 12.11426 23.924z"></path><path fill="#50661a" d="M543.10656 431.05176l-.62994-.037c.04821-.834 4.74623-83.425-6.16038-88.28854-1.21408-.54075-2.64108.00241-4.23922 1.61662l-.44835-.44513c1.80223-1.81991 3.46466-2.40566 4.94549-1.7484C547.87528 347.18885 543.30663 427.62969 543.10656 431.05176zM550.612 439.46513l-.61226-.15266c.21132-.84929 5.26368-20.84259 12.11425-23.924a4.10325 4.10325 0 013.74749.10285l-.29247.55923a3.45481 3.45481 0 00-3.19549-.086C555.79932 418.92144 550.6634 439.26024 550.612 439.46513z"></path><path fill="#50661a" d="M544.0828 438.795c-4.24646-23.27959-10.54423-31.66885-15.08-34.608-2.89819-1.877-4.93746-1.40772-4.95674-1.4029l-.15106-.61387c.09482-.0233 2.32692-.53673 5.4509 1.48646 4.64016 3.00667 11.07212 11.52369 15.35875 35.02423zM546.3374 438.8143c-14.29493-57.40069-18.15089-60.52627-18.18785-60.55118l.35032-.52549c.1607.10687 4.0962 3.28468 18.44979 60.924zM549.19221 439.40487l-.63155-.03214c1.32014-25.32206 15.54758-48.11312 15.6914-48.34051l.53352.33747C564.64337 391.59547 550.5027 414.25234 549.19221 439.40487z"></path><path fill="#d6694b" d="M526.45364,432.70152v5.24217a1.8168,1.8168,0,0,0,1.79866,1.83441h36.0368a1.8168,1.8168,0,0,0,1.79865-1.83441v-4.831a1.81729,1.81729,0,0,0-1.77853-1.83429l-36.0368-.41118A1.8163,1.8163,0,0,0,526.45364,432.70152Z"></path><polygon fill="#e19974" points="528.174 439.778 529.455 466.835 562.238 466.835 564.368 439.778 528.174 439.778"></polygon><path fill="#5e7c24" d="M558.61877,389.65888c.0501-2.46888,5.15459,2.00971,5.15459,2.00971-3.04034-13.64633-12.75481-7.95566-12.75481-7.95566-8.88277-10.02877-14.65006-2.87711-14.65006-2.87711,4.00949-1.37174,5.31707,1.18015,5.31707,1.18015a10.67589,10.67589,0,0,0-6.91238,1.378c-4.6726,3.87892-3.13991,13.15508-3.13991,13.15508,1.5388-2.19459,6.35526-3.25373,8.7948-3.41945,1.53269-.10218,1.2636.65074.85095,1.22486a3.09953,3.09953,0,0,1-1.0446.8931,61.28957,61.28957,0,0,0-7.0373,4.29354c-2.28957,1.79913,3.30271,10.46924,3.30271,10.46924,1.18846-1.7672,4.54767-2.94112,4.54767-2.94112,3.62189-.3126-3.54064,4.989-3.54064,4.989l4.14724,6.52007,4.41023-1.63964-.85706-2.622c.16891-2.53912,1.54521.93141,2.18938,1.48.64417.55512,6.274-4.49758,6.274-4.49758s-3.26514-12.44048-.71931-11.04974c2.55225,1.38435,4.00338,7.02409,4.59777,7.31115.44411.217,2.9151-4.02565,4.14113-6.18831a6.76449,6.76449,0,0,0,.66311-5.14848A20.11166,20.11166,0,0,0,558.61877,389.65888Zm-14.24351-.102c-1.62647,1.346-4.12862.59966-4.52874-.40185-.40685-.99528.83812-2.97944,2.70221-4.24261,1.74528-1.1867,3.75323-.29983,4.15366.70183C547.10893,386.60935,546.18315,388.05133,544.37526,389.55686Z"></path><path fill="#50661a" d="M551.01714,383.71291a30.43871,30.43871,0,0,1,.63325,4.51532,21.17989,21.17989,0,0,1-.406,4.56324,35.20973,35.20973,0,0,1-1.20474,4.41237c-.46924,1.442-.955,2.88615-1.49831,4.30793a69.03615,69.03615,0,0,1-3.87213,8.254,23.97918,23.97918,0,0,0-1.76849,4.14452,30.85919,30.85919,0,0,0-1.11284,4.39349,24.85966,24.85966,0,0,1,2.448-8.75806c.66309-1.36986,1.36906-2.70014,1.98373-4.079.621-1.37468,1.19579-2.77225,1.73323-4.18258.55642-1.4032,1.05539-2.82679,1.5422-4.26122.49044-1.43052.93115-2.86988,1.27595-4.33083a21.11088,21.11088,0,0,0,.57148-4.45948A36.43118,36.43118,0,0,0,551.01714,383.71291Z"></path><path fill="#50661a" d="M551.4451 389.77566a11.52975 11.52975 0 012.37824 2.14261 19.62145 19.62145 0 011.89664 2.58815 22.63719 22.63719 0 011.47953 2.84075c.21313.48912.39833.99.59539 1.48385.161.50951.33234 1.0132.47 1.528l-1.50153-2.79766c-.51875-.91629-1.02224-1.83669-1.58077-2.72354-.54637-.89409-1.12971-1.76326-1.73735-2.61788-.306-.42565-.6227-.84517-.96047-1.24742A15.0503 15.0503 0 00551.4451 389.77566zM547.031 404.35714a6.98191 6.98191 0 011.54763 2.24937 6.00536 6.00536 0 01.40727 1.32687 1.932 1.932 0 01-.19294 1.38763 3.23434 3.23434 0 00-.28343-1.26108c-.16331-.40044-.33144-.80028-.50931-1.20032A20.71649 20.71649 0 01547.031 404.35714zM549.49281 397.93161c-1.07728.40134-2.14763.79485-3.20744 1.20975-1.05629.42264-2.11208.83935-3.137 1.31854a29.1582 29.1582 0 00-3.01039 1.54652 13.6166 13.6166 0 00-2.69762 2.05222 8.9653 8.9653 0 012.43046-2.45819 17.0631 17.0631 0 013.01641-1.71535 24.08221 24.08221 0 013.24109-1.20122A22.22729 22.22729 0 01549.49281 397.93161z"></path><path fill="#c4ce6e" d="M581.27014,374.23288s7.32262-10.93859,16.48076,1.97884c0,0-7.17242-2.16389-6.12072.4736A21.3134,21.3134,0,0,1,598.337,381.752a8.06318,8.06318,0,0,1,1.62282,5.796c-.27854,2.907-.89769,8.64922-1.44224,8.6454-.72907-.00513-4.71448-5.24638-7.919-5.42546s5.64814,11.34287,5.64814,11.34287-3.45736,8.19477-4.356,7.938-3.84408-3.23428-2.88262-.46278l2.03521,2.34591-3.74071,3.9606-7.11074-4.80922s4.904-9.2335,1.37208-7.07179c0,0-2.88749,2.93856-3.30527,5.41439,0,0-9.52995-6.35784-8.013-9.42345a75.32509,75.32509,0,0,1,5.20329-8.07252,3.8646,3.8646,0,0,0,.72613-1.75131c.09505-.7388-.09254-1.40994-1.44669-.6181-2.40737,1.40772-6.81506,4.96181-7.39945,8.06529,0,0-5.6901-9.04966-2.67327-15.52021a12.50089,12.50089,0,0,1,6.39684-4.95431s-2.46452-2.04209-5.92273,1.4404C565.12964,378.59163,567.79533,368.10041,581.27014,374.23288Z"></path><path fill="#8b9d36" d="M581.27013,374.2329a79.20891,79.20891,0,0,1,3.16717,10.10683c.859,3.4292,1.52392,6.90662,2.04449,10.40412a104.26616,104.26616,0,0,1,.982,10.55779,90.75275,90.75275,0,0,1-.1613,10.59083c-.02772-3.53024-.0455-7.053-.32391-10.56441-.10495-1.75694-.27931-3.508-.442-5.25987-.21162-1.74629-.39391-3.4973-.67915-5.23354-.46592-3.48817-1.13664-6.946-1.89092-10.38414C583.20775,381.01287,582.33265,377.59783,581.27013,374.2329Z"></path><path fill="#8b9d36" d="M583.09788 380.05551a16.82222 16.82222 0 00-1.58248 2.34831 25.54909 25.54909 0 00-1.2423 2.51844c-.369.86125-.6901 1.74338-.98749 2.63817-.29438.89619-.55763 1.80545-.83774 2.72555.01627-.47919.06438-.95666.108-1.43655.07964-.47255.13709-.95314.2545-1.42017a16.29156 16.29156 0 01.88234-2.75538 14.33145 14.33145 0 011.40882-2.53441A8.64291 8.64291 0 01583.09788 380.05551zM586.14472 394.54358a7.236 7.236 0 014.66106 3.41394 5.92631 5.92631 0 01.70336 1.83548c-.37071-.543-.71411-1.07176-1.11143-1.55888a12.3985 12.3985 0 00-1.255-1.38251 14.65259 14.65259 0 00-1.42087-1.2204C587.21758 395.25537 586.70144 394.885 586.14472 394.54358z"></path><circle cx="369.967" cy="169.531" r="26.317" fill="#ffba55"></circle><path fill="#d77f4a" d="M369.96636,196.31762a26.78711,26.78711,0,1,1,26.78711-26.78711A26.81739,26.81739,0,0,1,369.96636,196.31762Zm0-52.63477A25.84766,25.84766,0,1,0,395.814,169.53051,25.87631,25.87631,0,0,0,369.96636,143.68285Z"></path><path fill="#d77f4a" d="M369.96636,171.87816a.47054.47054,0,0,1-.46973-.46972V154.43773a.46973.46973,0,0,1,.93946,0v16.97071A.47054.47054,0,0,1,369.96636,171.87816Z"></path><path fill="#d77f4a" d="M384.56792,175.38891a.47357.47357,0,0,1-.21-.04981l-17.6084-8.83008a.46949.46949,0,1,1,.41993-.83984l17.60839,8.83008a.46965.46965,0,0,1-.21.88965Z"></path><rect width="500" height="2" x="100" y="466.866" fill="#935b50"></rect></svg>