<svg xmlns="http://www.w3.org/2000/svg" enable-background="new 0 0 2792.727 2792.727" viewBox="0 0 2792.727 2792.727" id="young-writer-smoking-while-writing-his-new-article"><path fill="#030202" d="M1841.934 1067.798c-4.329.146-6.06-1.191-6.732-3.42-.71-2.354.494-4.376 2.549-5.48 1.882-1.011 4.05-1.478 6.058-2.27 5.052-1.994 10.181-3.832 15.103-6.111 6.165-2.854 10.662-7.44 12.945-14.005.594-1.708 1.45-3.324 2.132-5.005 3.774-9.296 10.92-14.147 20.591-15.743 4.294-.709 8.575-1.503 12.851-2.316 4.239-.806 7.256-2.915 8.466-7.381 2.282-8.43 7.353-14.84 14.62-19.651 3.986-2.638 6.995-6.261 9.597-10.283 9.417-14.557 23.995-21.651 39.634-27.163a9.961 9.961 0 0 1 2.114-.493c2.488-.295 5.272 1.515 5.861 3.815.602 2.356-.085 4.437-2.056 5.726-1.8 1.178-3.906 1.886-5.867 2.822-4.576 2.184-9.204 4.268-13.704 6.599-6.903 3.575-12.596 8.562-16.734 15.205-3.313 5.32-7.481 9.833-12.709 13.286-5.083 3.356-8.43 7.913-10.01 13.763-2.23 8.253-7.872 12.805-15.939 14.609-4.242.948-8.53 1.747-12.833 2.353-7.093.997-12.311 4.359-14.449 11.4-4.234 13.942-14.678 21.082-27.601 25.509-5.127 1.755-10.372 3.17-13.887 4.234zM1744.271 1116.28c-2.348-.211-4.69-2.574-5.054-4.975-.344-2.27.332-4.303 1.236-6.311 3.58-7.948 9.163-14.069 17.297-17.272 6.736-2.652 13.778-4.52 20.658-6.813 7.227-2.408 14.477-4.762 21.615-7.414 5.818-2.162 9.695-6.143 10.67-12.628.373-2.481 1.322-4.897 2.186-7.278 2.924-8.062 8.558-13.325 16.729-15.874 1.038-.324 2.112-.549 3.182-.752 7.862-1.494 13.774-5.899 19.029-11.797 4.578-5.14 9.815-9.7 14.847-14.424 2.684-2.519 5.9-4.242 9.43-5.294 2.549-.759 5.375.43 6.539 2.61 1.184 2.216.679 5.358-1.736 6.717-9.709 5.463-16.821 13.776-24.307 21.682-4.872 5.145-10.473 8.954-17.534 10.343-.352.069-.673.311-1.025.363-10.058 1.475-15.049 7.628-16.657 17.369-1.56 9.447-7.591 15.243-16.167 19.032-10.011 4.424-20.535 7.186-30.95 10.329-3.819 1.153-7.768 1.981-11.444 3.482-6.622 2.704-11.904 6.746-13.367 14.483-.629 3.338-2.708 4.644-5.177 4.422z"></path><path fill="#040303" d="M1815.509 1116.384c-1.073-.063-2.179.016-3.211-.221-1.895-.435-3.319-1.657-3.703-3.562-.451-2.239.079-4.271 2.116-5.736 1.893-1.361 4.016-1.548 6.214-1.541 7.539.024 13.226-3.25 17.252-9.58.972-1.529 2.141-2.932 3.223-4.391 8.089-10.911 18.678-17.123 32.501-16.702 4.881.149 8.244-1.586 10.992-5.517 5.51-7.882 12.836-13.797 21.164-18.488 2.203-1.241 4.51-2.354 6.878-3.229 3.584-1.325 6.954.114 8.079 3.189.787 2.151-.286 4.619-2.967 6.361-1.516.985-3.2 1.709-4.788 2.588-7.714 4.269-14.732 9.422-19.685 16.845-4.429 6.638-10.373 9.842-18.365 9.487-10.688-.475-18.932 4.065-25.145 12.606-.854 1.174-1.904 2.214-2.693 3.427-6.561 10.09-16.309 13.95-27.862 14.464z"></path><path fill="#090808" d="M1678.054 1108.745c.388-.83 1.154-1.426 2.033-1.683 3.743-1.098 7.486-2.197 11.229-3.293 8.491-2.485 11.975-.908 15.315 6.932 5.482 12.866 4.65 15.211-7.766 22.108-1.558.866-3.034 1.879-4.548 2.824-5.722 3.283-7.893-.955-9.182-4.987-1.635-5.113-4.012-9.869-5.941-14.829-1.006-2.339-2.261-4.671-1.14-7.072z"></path><path fill="#030303" d="M915.701 1761.151c-.271-6.508-.585-13.014-.802-19.523-.167-5.028-3.168-8.136-7.372-9.801-4.53-1.794-9.154-1.774-13.217 1.819-4.32 3.82-6.453 8.502-6.815 14.241-.755 11.951-.454 23.879.383 35.804.1 1.426.409 2.866.833 4.235.877 2.832 2.979 4.403 5.518 4.318 2.502-.084 4.407-2.021 4.643-5.042.168-2.156.073-4.338.007-6.506-.21-6.875-.508-13.747-.664-20.622-.041-1.773.217-3.572.517-5.328.273-1.603 3.012-1.979 4.317-.415.573.687.363 2.027.508 3.07l12.144 3.75z"></path><path fill="#d5e6e6" d="M1598.517 756.192c-21.672-10.013-44.51-11.8-67.928-9.766-6.116.531-12.271.627-18.408.923-.541-.6-.76-1.229-.658-1.887.104-.673.236-1.01.393-1.009a8.481 8.481 0 0 1 3.159-.56c4.139-.623 8.571 1.378 12.473-1.388 7.801-2.219 15.818-1.814 23.74-1.508 12.315.475 24.581 1.657 36.337 5.843 6.496 2.313 12.886 4.8 18.242 9.329a12.885 12.885 0 0 0 2.14 1.576c1.929.493 3.271 1.78 4.452 3.287.805.083 1.308.517 1.51 1.3l.59.463a9.36 9.36 0 0 1 1.842 1.668l.349.305a58.072 58.072 0 0 0 1.96 1.851l.213.21c.05 2.043-.549 3.303-2.923 2.423-2.436-1.164-4.277-3.024-5.949-5.082a9.488 9.488 0 0 1-1.977-1.617l-.335-.2c-.635-.842-1.332-1.602-2.431-1.828l-1.843-1.083a3.39 3.39 0 0 1-1.891-1.328l-.392-.207c-.703-.862-1.479-1.606-2.665-1.715z"></path><path fill="#d7d8d8" d="M1636.389 788.49c8.544 12.67 14.62 26.614 20.809 40.493.403.905.253 2.081.243 3.129-.003.269-.418.695-.712.766-.644.155-1.56.421-1.953.115a7.37 7.37 0 0 1-2.015-2.482c-6.392-12.984-12.733-25.993-19.086-38.996-.813-2.549.372-3.306 2.714-3.025z"></path><path fill="#d1e8e8" d="m1479.106 753.35-5.689.641c-1.37.382-2.739.772-4.183.729-1.842.124-3.8-.403-5.418.972-1.771.565-3.553.912-5.387.291a91.082 91.082 0 0 1-28.386-.003c-1.834.676-3.596.259-5.344-.356-.995-.653-2.196-.989-2.999-1.942-.262-.838-.023-1.519.649-2.064l4.967.52c2.284.721 4.741.398 7.019 1.156l15.875.007c2.825-1.267 5.967-.134 8.824-1.164l10.578-1.094c1.637-.357 3.324-.507 4.886-1.179l13.312-2.246c1.348.649 2.793.637 4.24.623 1.842.034 3.978-.878 5.063 1.578-3.385 2.162-7.215 1.851-10.967 1.975-1.138.477-2.313.77-3.555.747-1.229-.018-2.428.09-3.485.809z"></path><path fill="#d1dcdc" d="m1615.999 769.25 2.922-2.424c4.653 3.305 8.385 7.435 11.151 12.431.628 2.396-.434 3.214-2.708 2.899l-11.365-12.906z"></path><path fill="#c7fefe" d="m1497.111 749.817-7.034-.644c-.477-.391-.635-.782-.477-1.173.159-.391.318-.586.477-.586 5.674-1.759 11.471-2.773 17.417-2.891 1.606-.708 3.142-.884 4.463.585l.224 2.241-.267.003c-2.821 1.791-6.391-.189-9.169 1.82l-5.634.645z"></path><path fill="#cdd6d6" d="M1430.043 755.979c9.459.002 18.918.005 28.381.005-9.458 2.6-18.92 2.916-28.381-.005z"></path><path fill="#ccd1d1" d="m1627.365 782.156 2.707-2.9c3.047 2.435 5.05 5.582 6.317 9.234l-2.714 3.026c-2.805-2.648-4.659-5.936-6.31-9.36z"></path><path fill="#879c9c" d="M1211.147 1908.035c-1.068-1.436-.042-4.08-2.664-4.62-.168-1.509.438-2.737 1.382-3.85.683-.805 1.316-1.678 2.719-1.433.867 3.401.838 6.795-1.437 9.903z"></path><path fill="#8fb9b9" d="M1415.61 753.367c-1.54.193-2.664-.624-3.613-1.643-.742-.798-.952-1.882-.285-2.799.335-.461 1.211-.977 1.648-.841 2.597.808 5.56.77 7.567 3.044-1.13 2.273-3.734 1.044-5.317 2.239z"></path><path fill="#bffefe" d="M1527.547 742.505c-1.439 1.741-3.394 2.246-5.532 2.288-2.76.054-5.52.091-8.28.136l-.679-.769.639-.802c4.585-.815 9.194-1.232 13.852-.853z"></path><path fill="#d8ffff" d="m907.722 2056.454-.15-2.744c3.55-.214 7.1-.427 10.652-.643.012 1.102.022 2.206.032 3.311-3.492 2.716-7.004 2.714-10.534.076z"></path><path fill="#cdd6d6" d="M1459.032 752.135c-2.654 2.572-5.796 1.456-8.826 1.165 2.84-1.175 5.777-1.593 8.826-1.165z"></path><path fill="#bac1c1" d="M1502.746 749.172c2.663-2.589 5.83-2.639 9.169-1.82-2.685 2.478-5.937 2.101-9.169 1.82z"></path><path fill="#effbfb" d="M1415.61 753.367c1.149-2.221 3.567-1.433 5.314-2.24.573-.117 1.048.046 1.425.49a75.931 75.931 0 0 1-.106 1.72c-1.149 1.711-2.527 1.508-4.005.481l-2.628-.451z"></path><path fill="#bac1c1" d="M1513.696 743.357c.297.515.312 1.039.044 1.571a6.128 6.128 0 0 0-1.782.179c-1.491-.194-2.983-.388-4.468-.583 1.857-1.531 3.957-1.745 6.206-1.167z"></path><path fill="#cdd6d6" d="M1418.238 753.818c1.336-.158 2.672-.317 4.006-.478l2.454 2.283c-2.434.402-4.63-.048-6.46-1.805zM1434.334 753.292c-2.455.285-5.003 1.141-7.026-1.157 2.47-.364 4.825-.071 7.026 1.157z"></path><path fill="#c5d2d2" d="M1474.496 749.862c-1.311 1.71-3.051 1.645-4.886 1.179 1.421-1.258 3.072-1.558 4.886-1.179zM1468.285 753.707l5.129.284c-1.491 1.292-3.216 1.658-5.128 1.278-.714-.346-.951-.693-.715-1.041.235-.346.472-.521.714-.521z"></path><path fill="#cdd6d6" d="M1468.285 753.707c-.025.521-.025 1.042.001 1.562l-4.47.422c1.07-1.606 2.671-2.017 4.469-1.984z"></path><path fill="#c5d2d2" d="m1481.377 751.555 4.77.237c-1.397 1.142-2.966 1.636-4.764 1.281l-.006-1.518z"></path><path fill="#a1d1d1" d="M1091.193 1997.363c-1.124 1.749-2.537 2.849-4.764 2.127 1.112-1.772 2.703-2.474 4.764-2.127z"></path><path fill="#a1d1d1" d="M1086.452 1999.482a4.14 4.14 0 0 1-.277 1.969c-1.407.581-2.618.428-3.517-.918.923-.387 1.832-.811 2.775-1.14.294-.102.677.052 1.019.089z"></path><path fill="#cdd6d6" d="M1481.377 751.555c-.027.506-.025 1.012.005 1.518l-2.275.277 2.27-1.795z"></path><path fill="#c6fefe" d="M1490.078 747.413v1.761c-.755-.52-1.511-1.039-2.268-1.558l2.268-.203z"></path><path fill="#d1dcdc" d="m1608.073 762.551 1.977 1.617c-1.088-.014-1.697-.615-1.977-1.617z"></path><path fill="#ccd2d2" d="M1608.007 757.744c-1.108.008-1.788-.565-2.142-1.577 1.19-.119 1.84.493 2.142 1.577zM1601.573 758.113c.986-.062 1.624.371 1.892 1.329l-1.892-1.329zM1605.307 760.523c1.244.034 2.023.685 2.431 1.828-1.241-.036-2.024-.683-2.431-1.828z"></path><path fill="#d1dcdc" d="M1613.968 762.331c-.763-.137-1.268-.572-1.512-1.302.89-.011 1.385.432 1.512 1.302z"></path><path fill="#c6d5d5" d="M1333.297 702.778c.271-.714.785-1.103 1.536-1.161-.222.792-.731 1.177-1.536 1.161z"></path><path fill="#d1dcdc" d="m1618.709 766.617-1.962-1.852c1.154.091 1.786.73 1.962 1.852zM1616.4 764.462l-1.844-1.67c1.088.036 1.658.641 1.844 1.67z"></path><path fill="#cad8d8" d="m1355.089 689.778 1.85-1.197c-.317.87-.857 1.383-1.85 1.197z"></path><path fill="#d2d6d6" d="M1589.253 649.087c1.438.105 2.564.71 3.247 2.024-1.511.013-2.596-.658-3.247-2.024z"></path><path fill="#ccd2d2" d="M1598.517 756.192c1.283-.041 2.163.544 2.666 1.714-1.281.037-2.143-.574-2.666-1.714z"></path><path fill="#020101" d="M1473.071 1691.965c-3.105-.106-5.592-3.702-4.207-6.24 1.201-2.201 2.844-4.174 4.39-6.172 21.4-27.647 45.321-53 70.57-77.114 29.95-28.604 59.806-57.319 91.957-83.505 16.341-13.309 33.118-26.032 50.596-37.814a82.034 82.034 0 0 1 9.374-5.464c2.686-1.332 5.231-.599 6.829 1.417 1.523 1.922 1.233 4.744-1.006 6.823a47.475 47.475 0 0 1-5.984 4.697c-33.964 22.598-65.268 48.525-95.187 76.166-15.21 14.052-30.256 28.284-45.294 42.521-25.355 24.005-49.119 49.51-71.534 76.278a174.6 174.6 0 0 1-5.763 6.52c-1.292 1.394-2.95 2.051-4.741 1.887z"></path><path fill="#020202" d="M1847.761 1711.961c-.855 3.083-1.947 8.06-3.607 12.839-8.547 24.605-20.825 47.124-37.986 66.844-19.923 22.894-42.504 42.771-67.796 59.553-8.475 5.623-17.026 11.133-25.502 16.756-10.034 6.656-20.919 11.635-31.967 16.283-1.983.834-4.126 1.466-6.253 1.73-2.366.295-4.295-.958-5.206-3.157-.935-2.258-.224-4.362 1.79-5.706 1.477-.986 3.197-1.625 4.844-2.337 11.022-4.765 21.614-10.303 31.602-17.009 16.584-11.134 33.731-21.435 49.218-34.172 12.946-10.647 25.081-22.116 36.397-34.466 19.717-21.518 33.682-46.296 42.047-74.248.728-2.434 1.448-4.889 2.438-7.221 1.377-3.244 4.461-4.877 6.84-3.893 2.377.986 3.441 3.042 3.141 8.204z"></path><path fill="#040303" d="M1457.788 1098.149c-8.369-.307-16.184-1.586-23.464-5.188-2.266-1.12-4.534-2.337-5.727-4.778-.827-1.693-1.1-3.367-.124-5.158 1.199-2.2 3.119-2.937 5.413-2.784 1.045.07 2.193.395 3.066.958 10.567 6.818 22.074 6.117 33.647 4.073 11.542-2.039 22.257-6.328 31.835-13.166 6.576-4.694 12.142-10.147 14.563-18.329 1.306-4.415 4.227-6.067 7.041-5.246 3.215.938 4.561 4.473 3.563 9.061-1.112 5.111-3.889 9.327-7.108 13.276-4.87 5.972-10.926 10.549-17.544 14.404-14.057 8.187-29.287 12.242-45.161 12.877zM1536.589 858.537c18.181-.093 34.058 5.889 47.632 18.003 7.9 7.05 14.486 15.219 20.368 23.967 1.187 1.766 2.036 3.836 2.663 5.881.647 2.108-1.222 5.338-3.444 6.18-2.24.848-4.359.333-5.844-1.581-1.326-1.709-2.337-3.66-3.592-5.429-4.83-6.81-9.872-13.464-16.111-19.069-18.228-16.377-39.038-21.048-62.467-13.577-.685.218-1.335.56-2.029.736-3.414.868-6.42-.323-7.336-2.867-.84-2.333.747-5.335 3.733-7.058 5.112-2.95 16.666-5.217 26.427-5.186z"></path><path fill="#050404" d="M1412.184 875.987c2.543 0 5.102-.166 7.624.067 1.368.126 2.813.721 3.973 1.484 1.543 1.015 2.601 2.56 2.299 4.575-.29 1.937-1.531 3.441-3.24 4.043-1.642.578-3.561.747-5.31.582-12.675-1.199-24.477 2.082-36.025 6.778-10.441 4.246-18.689 11.067-24.358 20.873-2.362 4.086-4.509 8.302-7.002 12.303-1.916 3.075-4.977 3.793-7.409 2.159-2.747-1.846-3.667-4.327-2.177-7.559 7.478-16.221 17.396-30.142 34.669-37.414 11.863-4.995 24.03-8.154 36.956-7.891z"></path><path fill="#080707" d="M1468.855 994.187c-.171 5.293-1.131 9.138-2.913 12.762-1.278 2.599-2.806 5.09-3.912 7.757-2.747 6.627-1.43 11.577 4.237 16.358 1.37 1.155 3.092 1.904 4.414 3.103 2.642 2.396 1.622 6.405-1.72 7.98-2.606 1.229-5.005.636-7.313-.453-7.757-3.661-13.699-15.288-11.98-23.685.574-2.803 1.573-5.595 2.841-8.164 2.724-5.521 5.802-10.86 6.85-17.063.165-.975.861-2.005 1.6-2.706 1.411-1.338 3.203-1.505 5.058-.973 1.577.453 2.32 1.665 2.644 3.12.231 1.043.209 2.14.194 1.964z"></path><path fill="#192929" d="M916.753 2060.212c-.735 2.335-1.934 4.372-3.805 5.97-2.289-1.304-3.171-3.53-3.924-5.843 2.506-4.328 5.08-4.511 7.729-.127z"></path><path fill="#9c6969" d="M916.753 2060.212c-3.442-2.72-4.226-2.706-7.725.134-1.8-.844-1.27-2.463-1.307-3.892l10.535-.076c.108 1.516.105 2.99-1.503 3.834z"></path><path fill="#030303" d="M1416.132 942.014c-7.693-8.706-19.995-8.36-27.329.691-7.044 8.694-7.381 23.642-.599 32.472 4.569 5.948 10.741 8.546 18.133 7.337 6.938-1.135 11.7-5.199 14.246-11.875a26.86 26.86 0 0 0 1.734-10.281c.176-7.109-1.66-13.223-6.185-18.344zm-15.767 22.799c-.174.413-.633 1.73-1.268 2.957-.864 1.667-3.39 1.907-4.474.506-2.85-3.683-3.493-7.715-1.606-11.975.362-.816 1.524-1.669 2.395-1.76.888-.093 2.277.473 2.741 1.201 1.541 2.421 2.476 5.124 2.212 9.071zm7.215 2.494c-.524-.194-1.188-.783-1.258-1.269-.162-1.117.483-2.017 1.65-2.113 1.344-.11 1.507 1.024 1.694 2.019-.243 1.154-.921 1.794-2.086 1.363z"></path><path fill="#040404" d="M1571.943 929.725c-8.474-8.033-19.554-7.117-26.011 2.529-4.836 7.225-6.558 15.138-3.708 23.708 2.323 6.986 6.981 11.399 13.791 14.171 6.707 2.73 16.662.276 20.583-8.979 1.549-3.658 2.292-7.584 2.452-12.057-.581-6.793-1.372-13.935-7.107-19.372zm-10.099 23.972c-.391 1.502-1.498 2.61-2.952 2.832-1.468.223-2.776-.563-3.565-1.933-2.692-4.672-2.922-9.631-1.358-14.649.392-1.258 1.606-2.563 3.198-2.377.939.11 2.079.777 2.627 1.55 2.171 3.063 2.768 6.619 2.678 11.273-.088.481-.267 1.916-.628 3.304zm8.663 1.27c-.802 1.375-1.967 2.244-3.465 1.333-1.206-.733-2.298-1.993-1.391-3.547.477-.817 1.5-1.702 2.373-1.814 1.519-.195 2.987 2.417 2.483 4.028z"></path><path d="M1575.238 639.958h-.002l.009.011-.007-.011zM1345.436 692.066h-.03c.012.008.024.012.036.021l-.006-.021z"></path><path d="M2202.574 1992.866c-.241-.947-.916-1.969-1.697-2.555-1.85-1.388-4.102-1.181-6.289-1.131-27.263.626-54.527 1.182-81.789 1.865-46.888 1.175-93.774 2.439-140.662 3.613-2.863.072-5.815.63-8.881-.784-.883-4.422-2.014-8.991-2.66-13.627-.651-4.669-1.041-9.4-1.162-14.114-.561-21.807-.735-43.627-1.515-65.425-1.756-49.063-5.82-97.968-10.553-146.823-3.434-35.449-6.988-70.888-10.094-106.366-2.442-27.891-5.765-55.673-9.727-83.37-4.475-31.285-9.362-62.515-14.457-93.706-4.801-29.392-10.35-58.65-17.548-87.573-7.038-28.281-16.223-55.746-29.951-81.58-7.737-14.561-17.191-27.825-28.913-39.399-28.246-27.891-61.239-47.647-99.94-57.218-27.586-6.823-55.862-9.272-84.019-12.375-1.385-.153-2.931.081-4.24.569-1.797.671-3.063 2.288-3.006 4.151.039 1.266.922 2.766 1.887 3.671.981.921 2.476 1.562 3.831 1.77 6.099.935 12.242 1.576 18.343 2.497 19.036 2.875 38.084 5.679 57.071 8.853 4.879.816 10.062 1.385 14.152 4.45-.296 1.876-1.597 2.651-2.792 3.429-18.265 11.887-36.472 23.866-54.845 35.583-27.572 17.585-56.324 33.154-84.841 49.113-25.162 14.082-51.638 24.759-79.983 30.726-22.382 4.711-43.28 2.101-62.599-10.622-4.578-3.015-8.849-6.363-12.45-10.52-2.529-2.92-2.708-3.913-.487-6.534 12.412-14.644 26.788-26.502 45.353-32.731 14.097-4.73 28-10.038 42.05-14.912 19.143-6.639 34.558-18.17 46.495-34.518 11.245-15.4 19.232-32.407 25.683-50.262 2.205-6.102 2.986-12.697 6.387-18.374 6.382-1.367 12.796-2.6 19.14-4.125 19.402-4.666 33.788-8.403 52.855-14.336-7.31-8.931-12.673-27.471-12.673-30.611-1.748.488-37.21 8.04-55.342 13.334-.348.102-.67.311-1.021.377-1.506.284-2.918.21-3.496-1.535-.59-1.785.686-2.806 1.937-3.391 9.013-4.217 14.642-11.736 19.484-19.956 2.39-4.057 4.507-8.293 6.489-12.568 6.746-14.553 11.193-29.883 15.129-45.382.944-3.719 2.039-7.4 3.055-11.063 13.994 3.826 20.687 1.811 29.303-8.758a59.505 59.505 0 0 0 6.089-9.014c2.083-3.81 3.866-7.807 5.485-11.841 6.866-17.103 9.513-35.013 9.419-53.318-.044-8.709-.776-17.447-3.418-25.855a67.753 67.753 0 0 0-3.121-8.12c-1.291-2.793-2.884-5.446-4.622-8.675 7.298-2.961 13.645-6.42 19.49-10.746 11.027-8.161 16.973-18.435 15.111-32.741-2.626-20.181-6.268-40.162-10.641-60.02-2.653-12.048-6.895-23.714-8.723-35.964-3.017-20.219-9.231-39.552-16.124-58.711-4.656-12.942-12.159-23.783-22.511-32.876-14.209-12.482-28.877-24.393-43.723-36.09-10.583-8.338-21.851-15.643-34.299-20.959-13.68-5.843-27.687-7.823-42.57-5.176-18.308 3.257-36.785 4.312-55.336 1.268-9.315-1.528-18.719-2.534-28.097-3.649-19.673-2.338-38.398.903-55.92 10.188-7.371 3.906-14.678 8.029-21.591 12.681-24.434 16.44-50.479 30.068-76.305 44.18-24.805 26.074-46.385 54.559-66.102 84.399-3.996 6.046-7.505 12.442-10.861 18.874-2.686 5.149-4.359 10.694-5.5 16.461-3.085 15.601.288 30.33 5.557 44.824 1.858 5.109 4.225 10.031 6.282 15.071 3.088 7.566 4.104 15.207 2.373 23.429-1.867 8.862-3.313 17.865-2.785 27.042 1.142 19.867 8.161 36.705 24.709 48.749 1.14.829 2.137 1.855 3.484 3.04-5.521 7.966-7.156 16.739-7.134 25.948.018 8.03.85 15.955 2.798 23.758 3.46 13.856 8.742 26.911 16.993 38.654 4.218 6.003 9.093 11.406 15.565 15.02 6.01 3.355 12.274 4.314 18.669.792 1.229-.677 2.56-1.171 4.219-1.919 3.083 5.626 5.945 11.058 9.019 16.367 1.402 2.422 1.168 4.859.883 7.39-1.544 13.718-2.913 27.46-4.696 41.147-1.031 7.914-2.772 15.709-5.733 23.208-4.458 11.29-11.679 19.975-22.746 25.26-2.619 1.251-5.235 2.509-7.821 3.827-24.969 12.728-43.55 31.192-52.361 58.405-1.565 4.834-3.265 9.635-4.597 14.534-4.094 15.056-7.745 30.238-12.121 45.21-4.886 16.716-10.224 33.305-15.639 49.859-10.623 32.473-19.456 65.434-25.981 98.947-5.273 27.08-9.715 54.33-14.079 81.576-4.652 29.048-8.793 58.179-13.13 87.277-3.427 22.99-6.562 46.027-10.282 68.969-4.148 25.574-5.951 51.227-4.482 77.109.246 4.341.343 8.763-.18 13.064-2.319 19.076-9.516 35.548-25.36 47.567-7.279 5.522-14.883 10.372-23.084 14.329-17.096 8.247-32.814 18.601-47.614 30.474-9.697 7.78-17.919 16.969-26.504 25.857-14.563 15.076-18.293 17.62-42.7 12.107-.354-.08-.694-.212-1.044-.311-12.209-3.465-24.448-6.825-36.61-10.446-4.456-1.326-10.163-1.02-12.979-4.703-2.786-3.644-1.425-9.094-1.806-13.759-.03-.362-.021-.727-.032-1.09l-3.018-97.011c-.068-2.18-.249-6.536-.249-6.536l-11.492-2.755s.501 8.913.566 11.093c.987 32.699 1.996 65.397 2.921 98.098.079 2.798 1.07 5.776-1.238 8.882-11.335-3.04-22.943-5.869-34.369-9.306-9.128-2.746-18.42-4.189-27.846-4.811-14.924-.984-26.936 4.469-35.638 16.864-6.597 9.396-10.527 19.814-12.296 31.102-.449 2.866-.834 5.744-1.331 8.603-1.133 6.515-4.479 11.414-10.591 14.235-14.34 6.622-21.016 18.672-22.355 34.72-4.43 18.748-5.443 22.223-18.2 21.924-25.8-.604-51.598-1.328-77.396-1.975-25.071-.629-50.144-1.221-75.215-1.83-1.206 3.487-1.028 7.08-.813 10.676 1.438.18 2.874.484 4.315.522 23.262.605 46.524 1.177 69.787 1.756 4.361.108 8.727.136 13.083.351 3.01.148 3.911 1.257 3.44 4.052-.421 2.505-.979 4.991-1.566 7.464-11.924 50.164-23.861 100.324-35.79 150.486-.756 3.179-1.611 6.344-2.161 9.56-.825 4.822 1.608 7.596 6.615 7.661 1.81.023 3.623-.263 5.434-.426 9.773-.881 19.549-1.734 29.318-2.659 18.092-1.712 36.18-3.451 54.267-5.209 19.171-1.864 38.337-3.784 57.508-5.641 18.088-1.752 36.183-3.422 54.269-5.188 18.809-1.836 37.605-3.784 56.415-5.606 18.448-1.787 36.911-3.44 55.36-5.219 27.854-2.685 55.704-5.412 83.553-8.152 13.382-1.317 26.747-2.815 40.142-3.996 4.622-.408 7.385-2.471 8.602-6.884.481-1.744 1.255-3.406 1.848-5.122 5.928-17.154 11.845-34.313 17.768-51.468 7.344-21.274 14.793-42.512 21.958-63.846 1.603-4.773 4.14-6.842 9.262-7.097 18.513-.919 37.019-2.062 55.495-3.532 4.933-.393 8.396.838 11.228 4.753 1.267 1.751 2.897 3.267 4.496 4.746 14.266 13.195 29.752 24.217 48.759 29.897 16.863 5.04 32.295 2.604 46.858-6.719 7.647-4.896 15.198-9.957 22.602-15.213 3.658-2.597 7.254-4.051 11.919-4.15 46.892-1.004 93.777-2.273 140.665-3.445 58.52-1.462 117.04-2.903 175.56-4.355 58.883-1.461 117.766-2.949 176.649-4.376 49.434-1.198 98.871-2.275 148.305-3.496 47.615-1.177 95.228-2.474 142.841-3.708 21.081-.546 42.163-1.047 63.243-1.613 2.876-.078 5.855.274 8.543-1.146 1.393-.741 2.169-2.05 1.777-3.59zm-607.344-827.545c-5.419 14.659-11.496 29.025-19.376 42.543-2.918 5.006-6.298 9.763-9.714 14.454-9.694 13.312-22.531 22.531-37.902 28.189-13.951 5.136-27.878 10.383-42.029 14.918-23.839 7.639-41.657 23.059-56.633 42.384-4.069 5.25-6.276 11.407-8.406 18.88-2.204-1.442-3.756-2.353-5.195-3.416-13.046-9.635-34.373-8.415-47.116 9.107-2.797 3.846-4.979 8.007-6.253 12.613-.804 2.906-2.724 3.937-5.691 3.727-7.973-.562-15.961-.895-23.931-1.495-3.044-.229-4.122-1.455-3.785-4.097 1.835-14.423 1.226-29.013 3.38-43.442 2.207-14.784 5.292-29.257 10.649-43.238 2.623-6.844 6.056-13.206 10.512-18.982 20.91-27.099 48.83-43.514 85.69-45.576 13.36-12.691 26.398-25.354 37.369-39.955 5.234-6.966 10.682-13.784 16.28-20.462 3.743-4.466 8.062-8.396 13.531-10.77 2.979-1.293 6.054.237 6.652 3.404.753 3.986.573 7.983-.688 11.848-2.812 8.62-5.496 17.291-8.641 25.789-3.778 10.21-7.731 20.352-10.574 30.876-.465 1.722-1.032 3.549-.884 5.271.195 2.263 1.601 4.024 3.985 4.598 2.355.567 4.504-.111 5.648-2.195 1.207-2.198 2.094-4.628 2.764-7.056 4.563-16.529 12.126-31.835 19.154-47.361 1.965-4.342 4.42-8.359 7.891-11.656 1.36-1.292 3.126-1.93 4.98-1.154 1.46.611 2.151 2.068 2.19 3.514.068 2.515.157 5.118-.394 7.542-1.283 5.649-2.688 11.297-4.498 16.796-3.97 12.061-8.24 24.023-12.343 36.04-.699 2.047-1.385 4.137-1.707 6.263-.409 2.698 1.388 5.202 3.807 5.852 2.409.647 5.099-.53 6.347-3.04.963-1.938 1.728-3.991 2.419-6.047a6678.19 6678.19 0 0 0 12.051-36.133c4.689-14.217 11.927-27.223 19.16-40.217 1.727-3.103 3.617-6.529 7.593-7.316 2.057-.407 3.378 4.823 2.501 10.751-1.604 10.845-5.1 21.153-9.343 31.21-6.629 15.712-13.384 31.372-20.012 47.084-1.265 2.999-2.208 6.135-3.271 9.217-.64 1.855-.119 3.602.717 5.244.896 1.76 2.457 2.598 4.4 2.699 1.952.102 3.568-.535 4.51-2.355.499-.963.913-1.973 1.331-2.976 8.806-21.172 17.372-42.447 26.821-63.342 1.814-8.844 5.213-17.237 8.611-25.582.807-1.98 2-3.86 3.303-5.566 1.604-2.1 4.951-1.421 6.373.97 1.752 2.948 2.019 6.218 2.119 9.463.338 10.96-.502 21.769-4.352 32.183zm-193.32 191.295c.246 2.363-1.708 4.735-4.266 5.179-2.96.514-5.616-1.314-6.204-4.27-.485-2.439 1.363-4.669 4.155-5.013 3.241-.399 6.035 1.417 6.315 4.104zm281.956-358.929c-2.617 6.407-5.817 12.507-10.571 17.647-1.99 2.153-4.171 4.002-7.208 4.582-4.494.858-9.075-2.713-8.616-7.212.515-5.044 1.568-10.034 2.388-15.047 4.105-25.109 6.393-50.417 7.945-75.787.332-5.421 2.912-8.773 7.188-11.3 3.534-2.089 6.904-1.404 9.711 1.803 2.942 3.361 4.41 7.451 5.668 11.636 2.542 8.456 2.758 17.167 2.806 21.815-.049 20.601-3.059 36.558-9.311 51.863zm-51.784-309.709c.313-.467 1.222-.914 1.748-.801 3.414.736 5.946 2.662 7.86 5.361.519.731.885 1.489 1.663 1.934.382.219.682.521.896.905.512.919 1.485 1.642 2.276 2.337 7.322 6.44 13.154 14.084 17.774 22.705 8.546 11.324 14.472 24.097 20.042 37.006 8.902 20.63 15.688 41.884 18.276 64.36 1.38 11.987 1.066 23.852-1.534 35.574-1.4 6.312-3.335 12.655-9.864 15.966-.598.331-1.209.521-1.835.541l-2.8.418c-1.187.327-2.334.193-3.535-.258a1.008 1.008 0 0 1-.591-1.289c.207-.567.606-.984 1.371-1.063 1.367-.141 2.51-.345 3.884-.426.195-.127.475-.216.648-.389 5.174-4.032 7.32-9.625 8.584-15.848 3.165-15.592 2.045-31.104-1.132-46.456-5.548-26.807-15.395-52.04-29.018-75.795-1.792-3.124-3.397-6.355-5.088-9.537l-19.361-24.443v-.001l-.001.001-.021-.022c-1.267-1.295-2.693-2.417-4.2-3.422-2.281-1.521-4.303-3.362-6.088-5.463-.321-.379-.262-1.436.046-1.895zm-190.995-43.666c2.127-1.724 3.574-3.007 6.274-3.906.224-.184.506-.239.815-.431 12.854-5.927 26.132-8.441 40.181-5.142 7.764 1.823 15.558 3.512 23.339 5.262 8.608 1.26 17.22 1.181 25.834.059 2.54-.599 5.083-1.135 7.704-.506a13.048 13.048 0 0 1 1.877-.576c8.542-2.452 17.185-2.459 25.904-.534l-.051.259 2.022.661-.104.02c2.558-.324 4.938-.682 6.567 1.87l.326.16c.796.458 1.074.326 2.137 1.012.924-.055 1.813.667 2.831 1.129 3.84.688 6.984 2.734 9.961 5.108l-.001.002.003-.002c6.994 3.047 12.554 8.001 17.711 13.453 1.17 1.237 2.7 2.792.852 4.517-1.299 1.212-2.731.201-3.677-.788-5.707-5.97-12.704-10.284-19.25-15.177v-.001h-.002l-.207-.129c-.829-1.082-1.816-1.908-3.247-2.024-2.087.284-3.555-.817-4.901-2.191-9.452-3.594-19.241-5.006-29.321-4.538l-3.619.367c-2.764 1.596-6.132-.24-8.861 1.559l-8.146.625c-6.348 1.221-12.695 1.102-19.041-.018-6.255.787-11.968-1.956-17.975-2.797-2.116-.296-4.169-1.039-6.249-1.586-11.427-3.008-22.721-2.49-33.918 1.197-1.345.443-2.794.564-4.196.835-.111.055-.221.106-.331.157l-1.122.707c-3.093 1.742-4.371 3.096-7.461 4.839-1.387.782-2.705.866-3.542-.701-.58-1.089.037-2.064.884-2.751zm-169.086 225.313c-.235 2.772-.223 5.604-1.27 8.181-.623 1.533-1.512 6.463-1.584 6.406-.204 9.279-1.559 18.608 1.292 27.76.151.485-.369 1.489-.862 1.8-.972.613-2.104.38-2.731-.64-.746-1.212-1.593-2.485-1.875-3.84-2.236-10.765-2.234-21.437 1.757-31.872.137-4.484 1.321-8.738 2.829-12.921.098-.138.355-4.333.945-6.225.092-1.097.307-2.184.772-3.25.063-14.115-.177-28.239.255-42.343.837-27.283 8.195-52.767 22.223-76.244 1.096-1.834 19.501-22.095 19.502-22.095l1.71-2.723c2.522-3.96 6.17-6.598 10.215-8.77l.431-.161c1.107-.289 1.904-1.003 2.526-1.956l.055-.034a41.84 41.84 0 0 1 2.294-1.752c.154-.612.528-.809 1.121-.593a70.267 70.267 0 0 1 2.933-.671c.008-.05.006-.101.02-.151.145-.51.293-.766.447-.766 1.863-2.074 5.471-4.11 6.466-4.698 1.367-.905 2.432-1.379 4.554-2.115l.312-.138c.563-.31 1.19-.622 1.884-1.035a17.925 17.925 0 0 1 1.818-.796 21.876 21.876 0 0 0 2.584-1.562c.549-.311.984-.416 1.602-.663 1.113-.233 1.906-1.011 2.797-1.624.53-.304.71-.259 1.377-.566 1.25-.145 2.099-.989 3.012-1.722 1.781-.941 3.716-1.736 5.255-2.571 1.281-.455 2.461-.876 3.282-1.99l.122-.073c-.119-.143 17.831-11.886 26.955-17.501.417-.256 1.397.109 1.96.445 1.195.714.983 2 .292 2.722-1.716 1.795-3.488 3.645-5.559 4.973-6.304 4.045-19.366 11.243-19.259 11.424-2.685 2.078-5.503 3.908-8.829 4.785a1.905 1.905 0 0 0-.544.24c-.267.171-.463.282-.75.466l-3.1 1.562c-.724.267-1.247.51-1.824.997-.828.374-1.554.829-2.374 1.211l-.21.115c-.493.316-.984.634-1.474.953l-2.01.981c-.926.309-1.732.804-2.468 1.408l.119.078h-.222c-.037.031-.079.055-.115.087-.344.506-.786.781-1.326.823-.41.032-.794.204-1.103.474-3.076 2.694-6.72 4.44-10.422 6.096l-.566-.106c-.617 1.012-1.602 1.495-2.78 1.7-.404.525-.914.91-1.529 1.156-5.142 3.938-15.459 12.692-15.057 12.292-.402.4-.649.692-.936 1.146-.621.983-1.656 1.614-2.325 2.564-.824 1.172-1.973 2.046-3.244 2.808.245-.527-7.01 8.978-11.09 13.11-6.284 11.404-12.514 22.792-16.391 35.357-4.843 15.696-7.842 31.621-7.829 48.078.002 2.527-.22 5.053-.339 7.58-.203.927.118 22.527.309 23.353-.578.823.153 9.004-1.703 12.667.002-.416-.116 5.764-2.327 8.369zm99.989-61.653c-1.958 4.402-4.684 8.219-8.508 11.201-1.277 1.719-2.397 3.585-3.855 5.133-15.084 16.016-30.384 31.821-46.426 46.889-1.526 1.993-2.987 4.041-4.59 5.971-11.437 13.778-19.272 28.899-17.899 47.503.025.339-.068.786-.282 1.023-.438.483-.959 1.121-1.517 1.201-.58.083-1.595-.243-1.815-.688-1.66-3.366-1.735-6.968-1.316-10.625 1.13-9.861 4.217-19.102 9.257-27.609 4.237-7.152 8.88-14.059 15.484-19.354 1.352-1.663 2.582-3.442 4.072-4.97 15.405-15.794 30.853-31.548 46.288-47.313 2.319-4.17 5.238-7.884 8.573-11.281l1.009-1.813a4.562 4.562 0 0 1 1.368-2c2.843-6.516 6.481-12.719 7.613-19.915.104-.659 1.623-1.567 2.438-1.522.967.054 1.503 1.184 1.413 2.378-.675 8.864-4.521 16.417-9.639 23.45-.535.73-1.066 1.461-1.596 2.195l-.072.146zm-59.891 242.059c-1.907 2.223-4.384 2.673-6.881 1.505-2.267-1.061-4.537-2.378-6.358-4.066-2.642-2.448-5.195-5.113-7.239-8.063-11.431-16.503-17.344-34.877-18.164-54.898-.045-5.868.224-11.656 2.901-17.017 2.235-4.475 5.273-5.524 9.8-3.556 4.141 1.8 6.798 3.98 7.524 9.33 2.884 21.237 8.616 41.811 16.49 61.767 1.195 3.031 2.294 6.1 3.51 9.122.965 2.396-.127 4.179-1.583 5.876zm-9.324-94.937c-.847-9.381-.55-18.883-.453-28.326.088-8.601 2.983-16.445 8.061-23.323 4.69-6.352 10.446-12.009 15.973-17.453 26.119-21.01 45.836-47.001 60.031-76.9 3.64-7.666 7.644-10.396 16.233-10.37 13.435.04 26.518-3.826 39.433-7.582 19.503-5.673 38.919-11.659 58.497-17.064 13.666-3.772 27.564-6.832 41.912-5.718 28.415 2.205 53.752 11.378 73.95 32.52 8.061 8.438 15.426 17.234 21.76 27.114 11.77 18.359 16.334 38.565 17.462 59.894.077 1.451-.034 2.919.124 4.359 2.553 23.295.609 46.413-2.368 69.537-3.294 25.589-6.914 51.105-13.198 76.167-3.89 15.511-8.522 30.779-15.281 45.323-2.916 6.274-6.238 12.319-10.683 17.666-4.104 4.938-8.937 8.778-15.812 7.992-5.338-.611-8.752 2.755-13.243 6.094-1.192-2.162-1.727-3.554-2.612-4.667-5.345-6.731-12.202-7.823-19.135-3.085-3.67 2.508-6.363 5.933-8.676 9.669-1.875 3.029-3.681 6.101-5.521 9.161-10.293-6.579-10.942-6.565-23.875.367-.37-1.843-.654-3.619-1.087-5.358-2.633-10.566-13.67-15.72-24.152-9.849-3.455 1.935-6.824 4.251-9.679 6.973-4.193 3.997-8.092 8.35-11.753 12.847-5.961 7.323-11.652 14.866-17.409 22.354-1.889 2.457-4.155 3.549-7.371 3.737-11.125.65-21.699-1.504-31.917-5.646-13.266-5.377-24.986-13.252-35.719-22.645-20.772-18.179-36.828-40.03-49.95-64.172-18.626-34.265-30.035-70.769-33.542-109.616zm20.973 209.11c8.28-11.933 11.521-25.682 13.195-39.836.979-8.278 1.455-16.615 2.214-24.921.121-1.316-.361-2.88 1.147-3.833 2.791-.117 3.314 2.45 4.476 4.042 7.717 10.568 16.066 20.585 25.397 29.766 10.65 10.479 22.312 19.644 35.433 26.857 12.079 6.639 24.929 11.019 38.422 12.232.688 2.407-.577 3.257-1.676 4.169-6.279 5.216-13.616 8.51-21.468 10.028-26.164 5.057-48.152 17.449-66.503 36.591-.984 1.026-2.175 1.854-3.938 3.335.178-5.181-2.85-7.523-6.057-10.046-11.522-9.065-18.426-21.186-22.605-35.067-1.458-4.844-1.03-9.004 1.963-13.317zm-162.135 457.125c.923-6.47 2.009-12.917 2.966-19.383 3.616-24.425 6.963-48.892 10.872-73.27 4.367-27.237 8.767-54.485 14.006-81.563 6.485-33.51 15.271-66.472 25.863-98.944 5.287-16.209 10.46-32.464 15.25-48.826 4.483-15.312 8.345-30.805 12.58-46.192 1.25-4.543 2.903-8.974 4.26-13.49 7.368-24.515 23.861-41.022 46.053-52.519 5.455-2.826 10.982-5.514 16.468-8.26 2.181 1.25 2.357 3.524 2.992 5.582 4.149 13.451 10.856 25.29 21.605 34.656 3.81 3.32 7.581 6.5 13.2 5.843-.396 1.286-.429 2.104-.838 2.625-15.609 19.852-21.392 43.332-25.043 67.606-1.678 11.157-2.559 22.365-2.361 33.657.179 10.217-1.609 20.08-4.056 30.042-5.366 21.842-10.114 43.854-14.463 65.924-5.478 27.797-13.096 55.075-19.243 82.701-8.67 38.968-16.969 78.018-25.421 117.034-.921 4.25-1.81 8.507-2.795 13.143-1.304-.128-1.736-.046-2.013-.216-16.318-10.019-34.385-13.118-53.152-13.513-11.26-.237-22.52-.84-33.751.656-2.271.305-3.321-.893-2.979-3.293zm-39.394 395.818c-12.628 36.326-25.351 72.619-37.72 109.033-1.58 4.654-3.864 6.061-8.461 6.46-21.349 1.855-42.668 4.064-63.995 6.17-18.436 1.821-36.864 3.702-55.302 5.508-18.076 1.771-36.159 3.464-54.237 5.224-19.521 1.9-39.038 3.854-58.561 5.753-17.716 1.724-35.438 3.388-53.154 5.11-19.884 1.933-39.761 3.928-59.646 5.846-18.44 1.779-36.888 3.488-55.331 5.236-6.821.646-13.642 1.319-20.066 1.942-1.95-2.249-.812-3.906-.429-5.525 12.004-50.861 24.024-101.719 36.042-152.578.083-.354.14-.714.229-1.066 1.897-7.515 1.898-7.544 9.33-7.374 13.427.307 26.852.652 40.102.977 1.974 2.353.303 4.28-.23 6.138-1.806 6.284-3.664 12.5-3.733 19.157-.079 7.601 3.028 13.375 9.313 17.369 2.728 1.733 5.713 3.267 8.789 4.214 21.484 6.612 42.974 13.223 64.578 19.428 6.232 1.791 12.826 2.396 19.29 3.283 6.989.959 13.252-.752 16.985-7.141 4.132-7.071 4.284-14.561.112-21.782-1.399-2.42-3.38-4.505-5.72-7.557 3.447-.961 6.202-.492 8.873-.371 2.898.131 5.798.398 8.675.778 2.516.332 4.994.945 7.502 1.359 14.654 2.421 16.862 2.269 30.388-2.173l1.365 12.663a24.416 24.416 0 0 1 1.585 2.007c.787 1.458 1.257 3.065 2.069 4.482 1.394 1.634 2.461.82 3.45-.504.86-1.435 1.436-2.997 2.328-4.39.502-.697.906-1.444 1.223-2.24-.116-7.993-.299-15.987-.315-23.98-.007-3.479.931-4.542 4.455-4.793 14.495-1.037 29.002-1.909 43.501-2.896 28.272-1.924 56.541-3.913 84.814-5.819 16.313-1.1 32.634-2.07 48.948-3.137 7.935-.519 15.863-1.125 23.65-1.681.852 2.809.017 4.818-.696 6.87zm-225.615-2.871c-2.573-.004-4.917-.415-7.307-1.536-16.353-7.674-33.401-13.629-50.201-20.204-3.341-1.307-6.524-3.054-9.675-4.789-1.547-.852-.954-3.325.675-4.356 2.263-1.432 4.725-1.96 7.261-1.662 21.2 2.497 42.64 1.239 63.817 4.105 2.605.353 3.903 1.498 3.912 4.09.012 3.616.003 7.232.003 10.848h.249c0 1.446-.013 2.893.002 4.339.095 9.049-.066 9.179-8.736 9.165zm314.178-106.72c-2.006 16.921-3.986 33.846-6.029 50.763-1.134 9.391-1.212 18.808-1.063 28.246.106 6.764-.687 7.615-7.14 7.973-9.774.542-19.56.878-29.328 1.508-24.972 1.612-49.936 3.351-74.906 4.996-2.159.142-4.339-.039-6.51-.07-.517-.52-.646-.985-.392-1.395.23-.371.448-.559.654-.569 1.335-1.271 3.365-.983 4.759-2.123 13.74-6.466 26.913-14.001 40.298-21.145 32.369-17.274 58.829-40.602 76.992-72.804 4.205-.372 3.383 2.154 2.665 4.62zm-28.33 13.081c-13.943 17.087-30.948 30.607-50.094 41.472a14854.726 14854.726 0 0 1-34.121 19.298c-12.352 6.966-25.354 12.548-38.446 17.92-9.492 3.895-19.403 5.631-29.692 6.117-18.146.856-36.265 2.3-54.396 3.481-17.77 1.156-35.537 2.35-53.313 3.396-5.528.325-5.442-.452-5.78-7.393.072-5.15.172-10.299.264-15.449 4.271-3.21 9.068-.47 13.564-1.186 1.069-.17 2.185-.046 3.262-.188 10.338-1.358 15.621-10.174 11.744-19.957-1.191-3.005-3.196-5.681-4.734-8.558-1.168-2.184-3.471-3.792-3.426-6.623.959-2.399 3.636-1.98 5.324-3.243 4.602-3.441 6.304-7.967 5.128-13.392-1.686-7.771-5.569-14.141-12.844-18.02-13.011-6.937-26.877-10.868-41.589-11.736-1.776-.105-3.618.18-5.369.561-1.935.421-3.045 1.831-3.299 3.809-.284 2.214 1.153 4.615 3.228 5.002 4.275.798 8.575 1.486 12.884 2.088 9.479 1.324 18.173 4.919 26.662 9.103 1.616.797 3.217 1.744 4.583 2.906 3.048 2.592 5.247 8.016 3.824 9.433-2.241 2.233-5.306 2.339-8.181 2.067-5.056-.479-10.258-.709-15.074-2.137-8.414-2.494-16.986-3.744-25.61-5.001-7.899-1.152-15.736-2.736-23.608-4.083-1.402-.24-2.946-.633-4.243-.283-2.161.583-3.84 2.015-4.193 4.483-.283 1.971.397 3.708 1.921 4.806 2.382 1.718 5.188 2.497 8.09 3.02 11.788 2.126 23.548 4.411 35.349 6.463 5.031.875 9.841 2.271 14.667 3.958 8.822 3.084 14.633 9.111 18.826 17.126 2.677 5.116 1.422 7.203-4.683 7.153-3.626-.03-7.289-.198-10.868-.745-25.573-3.906-51.484-3.216-77.15-5.778-6.483-.647-12.174 1.239-17.531 4.537a18.897 18.897 0 0 0-4.159 3.464c-4.075 4.571-4.093 10.05-.123 14.785 2.864 3.417 6.621 5.722 10.601 7.494 5.627 2.505 11.374 4.768 17.164 6.874 12.262 4.459 24.176 9.864 36.806 13.34 3.105.855 6.03 2.487 8.911 4.003 2.957 1.556 4.645 4.215 3.899 5.861-1.055 2.332-3.294 2.655-5.498 2.701-2.539.052-5.115.146-7.617-.197-16.91-2.322-33.806-4.755-50.705-7.153-11.144-1.582-22.278-3.231-33.439-4.678-1.696-.22-3.575.305-5.258.838-1.898.601-2.804 2.268-2.911 4.191-.107 1.919.597 3.893 2.346 4.562 3.023 1.157 6.212 2.179 9.41 2.525 12.535 1.356 23.659 6.779 34.877 11.864 2.9 1.315 5.541 3.532 7.828 5.81 5.31 5.288 3.906 11.015-3.045 13.354-2.78.935-5.573 1.476-8.556.781-6.708-1.562-13.563-2.596-20.153-4.537-17.398-5.122-34.714-10.527-52.012-15.982-16.938-5.342-15.156-8.195-9.351-32.78 11.733-9.227 18.588-20.6 19.882-34.784.295-3.234 1.168-6.431 1.953-9.601 1.841-7.429 5.975-13.141 12.864-16.714 1.933-1.002 3.925-1.921 5.745-3.102 8.974-5.823 12.661-14.672 13.764-24.831.912-8.394 2.894-16.453 6.861-23.925a61.257 61.257 0 0 1 5.254-8.248c5.134-6.773 11.923-10.35 20.564-10.422 9.527-.08 18.817 1.302 27.97 3.839 34.959 9.69 69.915 19.387 104.885 29.036 8.117 2.24 16.242 3.61 24.714 1.358 5.027-1.336 9.529-3.313 13.579-6.553 5.699-4.56 10.847-9.667 15.671-15.123 16.316-18.455 35.764-32.901 57.308-44.638 4.46-2.43 9.106-4.52 13.534-7.003 5.062-2.839 10.156-5.679 14.92-8.976 20.103-13.914 30.334-33.553 33.21-57.527 1.693-14.109 2.309-28.248 2.196-42.429-.124-15.704 2.435-31.131 4.607-46.594 2.021-14.384 4.29-28.733 6.478-43.093 1.069-7.018 1.479-7.464 9.146-7.943 15.286-.954 30.506.17 45.72 1.602 6.928.652 13.615 2.153 20.074 4.701 2.024.799 4.068 1.583 5.996 2.583 11.315 5.868 11.868 6.999 9.521 19.346-4.203 22.114-8.398 44.23-12.664 66.332-3.721 19.281-5.616 38.816-8.298 58.242-2.384 17.268-3.983 34.737-7.809 51.692-6.691 29.649-18.286 57.391-37.736 81.228zm148.632 89.544c-8.811 6.398-17.808 12.566-26.98 18.43-11.598 7.415-23.923 9.372-37.455 5.177-19.33-5.993-34.673-17.842-49.082-31.349-2.016-1.89-2.504-4.079-2.548-6.798-.215-13.448-.215-26.823 1.605-40.239 4.835-35.628 9.007-71.346 13.769-106.985 2.885-21.593 6.432-43.097 9.582-64.655 2.625-17.964 4.404-36.082 7.781-53.9 9.397-49.57 18.312-99.237 29.165-148.526 8.976-40.759 18.417-81.403 28.028-122.018 7.183-30.354 14.029-60.838 19.266-91.63.48-2.823.815-5.734 2.918-8.831l32.783 1.269c1.203 4.631 1.977 8.555 3.249 12.31 2.777 8.195 7.819 14.806 15.309 19.178 11.351 6.627 22.759 6.227 34.109-.349 2.731-1.583 4.685-4.517 7.697-5.043 1.653.916 1.326 2.046 1.257 3.005-1.72 23.918-3.478 47.833-5.207 71.75-.917 12.684-1.793 25.372-2.681 38.058-2.815 40.232-5.659 80.462-8.429 120.697-1.796 26.099-3.476 52.207-5.221 78.31-.775 11.601-1.693 23.194-2.325 34.803-.266 4.877 1.46 7.207 5.262 8.329 2.195.647 4.272.453 6.216-.876 2.098-1.434 4.274-2.753 6.36-4.203 13.451-9.352 28.183-16.482 42.431-24.448 5.371-3.003 4.199-1.094 15.474 9.191 20.379 24.095 42.379 46.804 61.738 71.767 8.233 10.617 16.084 21.531 24.041 32.361 1.49 2.029 2.654 4.297 4.498 7.322-5.689 4.819-10.607 9.11-15.659 13.238-9.844 8.043-19.882 15.855-29.625 24.019-15.62 13.089-32.424 24.593-49.019 36.328-17.231 12.185-33.625 25.396-50.086 38.53-10.512 8.387-21.124 16.599-32.027 24.474-18.844 13.612-37.384 27.644-56.194 41.304zm611.336-15.001c-63.172 2.801-577.876 15.054-588.507 14.023-.839-2.028 1.148-2.452 2.078-3.138 17.257-12.719 34.73-25.15 51.836-38.068 12.468-9.415 24.602-19.286 36.646-29.243 16.832-13.915 35.066-25.907 52.63-38.814 12.602-9.262 24.985-18.751 36.964-28.81 11.628-9.763 23.634-19.076 35.791-28.842 6.911 9.356 12.151 19.278 17.166 29.308 2.756 5.513 5.068 11.25 7.572 16.889.736 1.657 1.321 3.395 2.19 4.977 1.343 2.447 4.254 3.526 6.485 2.595 2.299-.96 4.24-3.813 3.586-6.09-.997-3.471-2.301-6.872-3.703-10.207-9.911-23.573-23.459-45.082-37.965-65.998-14.308-20.631-30.191-40.046-46.818-58.845-14.927-16.878-29.979-33.645-44.916-50.515-6.359-7.182-10.877-8.293-20.162-3.16-12.383 6.845-25.089 13.172-36.681 21.394-1.993 1.414-3.81 3.404-6.559 3.171-1.254-2.279-.532-4.43-.39-6.51 2.036-29.736 4.086-59.47 6.205-89.2 2.559-35.893 5.243-71.778 7.764-107.673 1.834-26.107 3.465-52.229 5.237-78.34 1.525-22.482 3.191-44.954 4.655-67.439.779-11.962 1.255-23.944 1.879-35.917.24-4.613.341-9.257 2.174-13.539 3.296.239 4.637 2.71 6.546 4.241 9.775 7.84 20.831 13.26 32.656 17.048 10.617 3.402 21.615 2.792 32.447 1.359 23.56-3.118 46.026-10.175 67.578-20.098 8.566-3.944 17.087-8.052 25.33-12.624 30.166-16.728 60.418-33.326 89.559-51.814 18.4-11.674 36.514-23.798 54.758-35.719 1.825-1.192 3.83-2.174 5.452-3.595 3.187-2.79 6.535-2.65 10.086-1.082 4.646 2.052 9.426 3.865 13.879 6.277 37.697 20.415 68.245 47.708 86.068 87.812 10.823 24.352 18.753 49.551 24.776 75.399 7.09 30.43 12.832 61.137 17.608 92.011 5.054 32.669 10.104 65.344 14.551 98.099 5.483 40.378 7.998 81.18 13.513 121.466 2.969 49.698 8.83 99.094 11.896 148.781 2.51 40.671 1.968 81.415 4.16 122.078.307 5.694-.248 11.439.75 16.736-2.369 2.025-4.643 1.522-6.77 1.616z"></path></svg>