<svg width="338" height="96" viewBox="0 0 338 96" fill="none" xmlns="http://www.w3.org/2000/svg">
<path d="M19.84 70.448C16.7253 70.448 13.9093 69.9147 11.392 68.848C8.91733 67.7813 6.95467 66.2453 5.504 64.24C4.05333 62.2347 3.30667 59.8667 3.264 57.136H12.864C12.992 58.9707 13.632 60.4213 14.784 61.488C15.9787 62.5547 17.6 63.088 19.648 63.088C21.7387 63.088 23.3813 62.5973 24.576 61.616C25.7707 60.592 26.368 59.2693 26.368 57.648C26.368 56.3253 25.9627 55.2373 25.152 54.384C24.3413 53.5307 23.3173 52.8693 22.08 52.4C20.8853 51.888 19.2213 51.3333 17.088 50.736C14.1867 49.8827 11.8187 49.0507 9.984 48.24C8.192 47.3867 6.63467 46.128 5.312 44.464C4.032 42.7573 3.392 40.496 3.392 37.68C3.392 35.0347 4.05333 32.7307 5.376 30.768C6.69867 28.8053 8.55467 27.312 10.944 26.288C13.3333 25.2213 16.064 24.688 19.136 24.688C23.744 24.688 27.4773 25.8187 30.336 28.08C33.2373 30.2987 34.8373 33.4133 35.136 37.424H25.28C25.1947 35.888 24.5333 34.6293 23.296 33.648C22.1013 32.624 20.5013 32.112 18.496 32.112C16.7467 32.112 15.3387 32.56 14.272 33.456C13.248 34.352 12.736 35.6533 12.736 37.36C12.736 38.5547 13.12 39.5573 13.888 40.368C14.6987 41.136 15.68 41.776 16.832 42.288C18.0267 42.7573 19.6907 43.312 21.824 43.952C24.7253 44.8053 27.0933 45.6587 28.928 46.512C30.7627 47.3653 32.3413 48.6453 33.664 50.352C34.9867 52.0587 35.648 54.2987 35.648 57.072C35.648 59.4613 35.0293 61.68 33.792 63.728C32.5547 65.776 30.7413 67.4187 28.352 68.656C25.9627 69.8507 23.1253 70.448 19.84 70.448ZM55.128 41.904V59.056C55.128 60.2507 55.4053 61.1253 55.96 61.68C56.5573 62.192 57.5387 62.448 58.904 62.448H63.064V70H57.432C49.88 70 46.104 66.3307 46.104 58.992V41.904H41.88V34.544H46.104V25.776H55.128V34.544H63.064V41.904H55.128ZM112.809 40.048C113.961 38.1707 115.454 36.6987 117.289 35.632C119.166 34.5653 121.299 34.032 123.689 34.032V43.44H121.321C118.505 43.44 116.371 44.1013 114.921 45.424C113.513 46.7467 112.809 49.0507 112.809 52.336V70H103.849V34.544H112.809V40.048ZM164.924 34.544L142.972 86.768H133.436L141.116 69.104L126.908 34.544H136.956L146.108 59.312L155.388 34.544H164.924ZM186.457 70.448C183.343 70.448 180.527 69.9147 178.009 68.848C175.535 67.7813 173.572 66.2453 172.121 64.24C170.671 62.2347 169.924 59.8667 169.881 57.136H179.481C179.609 58.9707 180.249 60.4213 181.401 61.488C182.596 62.5547 184.217 63.088 186.265 63.088C188.356 63.088 189.999 62.5973 191.193 61.616C192.388 60.592 192.985 59.2693 192.985 57.648C192.985 56.3253 192.58 55.2373 191.769 54.384C190.959 53.5307 189.935 52.8693 188.697 52.4C187.503 51.888 185.839 51.3333 183.705 50.736C180.804 49.8827 178.436 49.0507 176.601 48.24C174.809 47.3867 173.252 46.128 171.929 44.464C170.649 42.7573 170.009 40.496 170.009 37.68C170.009 35.0347 170.671 32.7307 171.993 30.768C173.316 28.8053 175.172 27.312 177.561 26.288C179.951 25.2213 182.681 24.688 185.753 24.688C190.361 24.688 194.095 25.8187 196.953 28.08C199.855 30.2987 201.455 33.4133 201.753 37.424H191.897C191.812 35.888 191.151 34.6293 189.913 33.648C188.719 32.624 187.119 32.112 185.113 32.112C183.364 32.112 181.956 32.56 180.889 33.456C179.865 34.352 179.353 35.6533 179.353 37.36C179.353 38.5547 179.737 39.5573 180.505 40.368C181.316 41.136 182.297 41.776 183.449 42.288C184.644 42.7573 186.308 43.312 188.441 43.952C191.343 44.8053 193.711 45.6587 195.545 46.512C197.38 47.3653 198.959 48.6453 200.281 50.352C201.604 52.0587 202.265 54.2987 202.265 57.072C202.265 59.4613 201.647 61.68 200.409 63.728C199.172 65.776 197.359 67.4187 194.969 68.656C192.58 69.8507 189.743 70.448 186.457 70.448ZM220.274 39.664C221.426 38.0427 223.004 36.6987 225.01 35.632C227.058 34.5227 229.383 33.968 231.986 33.968C235.015 33.968 237.746 34.7147 240.178 36.208C242.652 37.7013 244.594 39.8347 246.002 42.608C247.452 45.3387 248.178 48.5173 248.178 52.144C248.178 55.7707 247.452 58.992 246.002 61.808C244.594 64.5813 242.652 66.736 240.178 68.272C237.746 69.808 235.015 70.576 231.986 70.576C229.383 70.576 227.079 70.0427 225.074 68.976C223.111 67.9093 221.511 66.5653 220.274 64.944V86.896H211.314V34.544H220.274V39.664ZM239.026 52.144C239.026 50.0107 238.578 48.176 237.682 46.64C236.828 45.0613 235.676 43.8667 234.226 43.056C232.818 42.2453 231.282 41.84 229.618 41.84C227.996 41.84 226.46 42.2667 225.01 43.12C223.602 43.9307 222.45 45.1253 221.554 46.704C220.7 48.2827 220.274 50.1387 220.274 52.272C220.274 54.4053 220.7 56.2613 221.554 57.84C222.45 59.4187 223.602 60.6347 225.01 61.488C226.46 62.2987 227.996 62.704 229.618 62.704C231.282 62.704 232.818 62.2773 234.226 61.424C235.676 60.5707 236.828 59.3547 237.682 57.776C238.578 56.1973 239.026 54.32 239.026 52.144ZM260.513 30.32C258.934 30.32 257.611 29.8293 256.545 28.848C255.521 27.824 255.009 26.5653 255.009 25.072C255.009 23.5787 255.521 22.3413 256.545 21.36C257.611 20.336 258.934 19.824 260.513 19.824C262.091 19.824 263.393 20.336 264.417 21.36C265.483 22.3413 266.017 23.5787 266.017 25.072C266.017 26.5653 265.483 27.824 264.417 28.848C263.393 29.8293 262.091 30.32 260.513 30.32ZM264.929 34.544V70H255.969V34.544H264.929ZM284.021 40.048C285.173 38.1707 286.666 36.6987 288.501 35.632C290.378 34.5653 292.512 34.032 294.901 34.032V43.44H292.533C289.717 43.44 287.584 44.1013 286.133 45.424C284.725 46.7467 284.021 49.0507 284.021 52.336V70H275.061V34.544H284.021V40.048ZM335.176 51.504C335.176 52.784 335.091 53.936 334.92 54.96H309C309.213 57.52 310.109 59.5253 311.688 60.976C313.267 62.4267 315.208 63.152 317.512 63.152C320.84 63.152 323.208 61.7227 324.616 58.864H334.28C333.256 62.2773 331.293 65.0933 328.392 67.312C325.491 69.488 321.928 70.576 317.704 70.576C314.291 70.576 311.219 69.8293 308.488 68.336C305.8 66.8 303.688 64.6453 302.152 61.872C300.659 59.0987 299.912 55.8987 299.912 52.272C299.912 48.6027 300.659 45.3813 302.152 42.608C303.645 39.8347 305.736 37.7013 308.424 36.208C311.112 34.7147 314.205 33.968 317.704 33.968C321.075 33.968 324.083 34.6933 326.728 36.144C329.416 37.5947 331.485 39.664 332.936 42.352C334.429 44.9973 335.176 48.048 335.176 51.504ZM325.896 48.944C325.853 46.64 325.021 44.8053 323.4 43.44C321.779 42.032 319.795 41.328 317.448 41.328C315.229 41.328 313.352 42.0107 311.816 43.376C310.323 44.6987 309.405 46.5547 309.064 48.944H325.896Z" fill="black"/>
<circle cx="83.5" cy="55.5" r="5.5" stroke="#FD5F5F" stroke-width="4"/>
<circle cx="94.5" cy="63.5" r="3.5" fill="#FD5F5F"/>
<path d="M96 55C96 47.8203 90.1797 42.5 83 42.5C75.8203 42.5 69.9997 47.8203 70 55C70.0003 62.5 76 69.5 87 68" stroke="#FD5F5F" stroke-width="4"/>
</svg>
